<svg width="1440" height="477" viewBox="0 0 1440 477" fill="none" xmlns="http://www.w3.org/2000/svg">
<path d="M1288.45 393.731C1339.57 393.731 1401.54 374.437 1441.94 345.023L1480.07 412.502C1433.96 446.921 1361.19 475.427 1285.09 475.427C1200.41 475.427 1139.89 445.731 1100.53 401.127C1061.17 356.513 1042.93 296.936 1042.93 237.12C1042.93 168.88 1063.89 112.472 1106.61 67.8532C1149.33 23.238 1205.45 0.5 1273.33 0.5C1337.87 0.5 1391.48 20.7128 1432.51 61.9532C1473.54 103.19 1494.5 158.748 1494.5 229.525C1494.5 242.054 1493.68 257.07 1491.21 273.749H1138.15H1137.55L1137.66 274.342C1144.4 309.874 1160.19 339.731 1185.27 360.704C1210.36 381.678 1244.69 393.731 1288.45 393.731ZM1401.8 198.803H1402.36L1402.3 198.251C1394.71 126.273 1341.61 79.6651 1273.33 79.6651C1203.38 79.6651 1151.14 127.119 1137.66 198.21L1137.55 198.803H1138.15H1401.8ZM392.704 357.98C355.753 428.445 274.634 475.427 184.297 475.427C114.721 475.427 56.9198 453.527 12.5256 408.911C-31.8748 364.288 -54.5 307.881 -54.5 238.807C-54.5 168.89 -31.8746 112.484 13.362 67.8634C58.5995 23.2414 116.404 0.5 187.656 0.5C278.004 0.5 359.121 46.652 395.233 121.308L319.665 163.871C291.831 115.877 242.271 84.7281 188.496 84.7281C145.55 84.7281 109.312 99.1203 80.6622 128.76C52.0187 158.394 37.7001 194.806 37.7001 238.807C37.7001 281.968 52.0209 317.533 79.8174 347.161C107.627 376.804 143.028 391.199 185.137 391.199C238.868 391.199 293.427 358.418 317.159 313.761L392.704 357.98ZM910.528 279.312C910.528 341.233 891.878 390.458 857.779 424.203C823.679 457.948 774.068 476.271 712.033 476.271C651.685 476.271 602.282 457.32 567.967 423.254C533.653 389.189 514.378 339.961 514.378 279.312V11.47H605.739V278.468C605.739 312.738 615.633 340.928 633.895 360.556C652.163 380.188 678.753 391.199 712.033 391.199C745.726 391.199 772.319 380.614 790.485 361.19C808.647 341.77 818.328 313.576 818.328 278.468V11.47H910.528V279.312Z" stroke="#D8EAE5"/>
</svg>
