<svg width="16" height="16" viewBox="0 0 16 16" fill="none" xmlns="http://www.w3.org/2000/svg">
<g clip-path="url(#clip0_1_600)">
<path fill-rule="evenodd" clip-rule="evenodd" d="M8.00004 2.08337C4.73236 2.08337 2.08337 4.73236 2.08337 8.00004C2.08337 11.2677 4.73236 13.9167 8.00004 13.9167C11.2677 13.9167 13.9167 11.2677 13.9167 8.00004C13.9167 4.73236 11.2677 2.08337 8.00004 2.08337ZM0.583374 8.00004C0.583374 3.90393 3.90393 0.583374 8.00004 0.583374C12.0962 0.583374 15.4167 3.90393 15.4167 8.00004C15.4167 12.0962 12.0962 15.4167 8.00004 15.4167C3.90393 15.4167 0.583374 12.0962 0.583374 8.00004Z" fill="white"/>
<path fill-rule="evenodd" clip-rule="evenodd" d="M8 7.25C8.41421 7.25 8.75 7.58579 8.75 8V10.6667C8.75 11.0809 8.41421 11.4167 8 11.4167C7.58579 11.4167 7.25 11.0809 7.25 10.6667V8C7.25 7.58579 7.58579 7.25 8 7.25Z" fill="white"/>
<path fill-rule="evenodd" clip-rule="evenodd" d="M7.25 5.33337C7.25 4.91916 7.58579 4.58337 8 4.58337H8.00667C8.42088 4.58337 8.75667 4.91916 8.75667 5.33337C8.75667 5.74759 8.42088 6.08337 8.00667 6.08337H8C7.58579 6.08337 7.25 5.74759 7.25 5.33337Z" fill="white"/>
</g>
<defs>
<clipPath id="clip0_1_600">
<rect width="16" height="16" fill="white"/>
</clipPath>
</defs>
</svg>
