<svg width="52" height="16" viewBox="0 0 52 16" fill="none" xmlns="http://www.w3.org/2000/svg">
<path d="M8.02804 15.9717C11.0702 15.9717 13.8026 14.3858 15.042 12.0071L12.4787 10.5062C11.69 12.0071 9.859 13.1115 8.05621 13.1115C6.64778 13.1115 5.4647 12.6301 4.53514 11.6389C3.60558 10.6478 3.12671 9.45841 3.12671 8.01416C3.12671 6.54159 3.60558 5.32389 4.56331 4.33274C5.52104 3.34159 6.73229 2.86018 8.16889 2.86018C9.97167 2.86018 11.6336 3.90796 12.5632 5.52212L15.1265 4.07788C13.9153 1.55752 11.1829 0 8.14072 0C5.74639 0 3.80276 0.764602 2.28165 2.26549C0.760551 3.76637 0 5.66372 0 8.01416C0 10.3363 0.760551 12.2336 2.25349 13.7345C3.74642 15.2354 5.69005 15.9717 8.02804 15.9717Z" fill="#5AD1AD"/>
<path d="M25.7327 16C29.9017 16 32.4087 13.5363 32.4087 9.37345V0.368142H29.282V9.34513C29.282 11.6956 27.9862 13.1115 25.7327 13.1115C23.5074 13.1115 22.1835 11.6389 22.1835 9.34513V0.368142H19.0849V9.37345C19.0849 13.4513 21.6765 16 25.7327 16Z" fill="#5AD1AD"/>
<path d="M52 7.70266C52 5.32389 51.2958 3.45487 49.9155 2.06726C48.5353 0.679647 46.7325 0 44.5635 0C42.2818 0 40.3945 0.764602 38.9579 2.26549C37.5213 3.76637 36.8171 5.66372 36.8171 7.95752C36.8171 11.9788 39.2678 15.9717 44.9579 15.9717C47.5212 15.9717 49.9719 15.0088 51.5211 13.8478L50.2254 11.554C48.8733 12.5451 46.7888 13.1965 45.0705 13.1965C42.141 13.1965 40.479 11.5823 40.0283 9.20354H51.8873C51.9718 8.63717 52 8.12743 52 7.70266ZM44.5635 2.69027C46.8451 2.69027 48.6198 4.24779 48.8733 6.65487H40.0283C40.479 4.27611 42.2255 2.69027 44.5635 2.69027Z" fill="#5AD1AD"/>
</svg>
