<svg width="174" height="169" viewBox="0 0 174 169" fill="none" xmlns="http://www.w3.org/2000/svg">
<path d="M112.662 3.45775V164.831C112.662 166.743 111.113 168.288 109.205 168.288H3.45663C1.54834 168.288 0 166.743 0 164.831V3.45775C0 1.54607 1.54834 0.00146484 3.45663 0.00146484H109.205C111.113 0.00146484 112.662 1.54607 112.662 3.45775Z" fill="#F8F3F1"/>
<path d="M112.662 67.3304V164.831C112.662 166.743 111.113 168.288 109.205 168.288H97.8012C79.6906 159.781 67.1509 141.374 67.1509 120.041C67.1512 93.2557 86.9183 71.0873 112.662 67.3304Z" fill="#F8F3F1"/>
<path d="M112.66 3.45629V164.833C112.66 166.74 111.115 168.289 109.204 168.289H96.3354C98.2434 168.289 99.7917 166.74 99.7917 164.833V3.45629C99.7917 1.54834 98.2434 5.57261e-08 96.3354 5.57261e-08H109.204C111.115 -0.000339195 112.66 1.54834 112.66 3.45629Z" fill="#E5E1E5"/>
<path d="M31.9843 37.0649H18.6093C16.5467 37.0649 14.8745 35.3928 14.8745 33.3301V19.9552C14.8745 17.8925 16.5467 16.2203 18.6093 16.2203H31.984C34.0466 16.2203 35.7188 17.8925 35.7188 19.9552V33.3298C35.7188 35.3928 34.0469 37.0649 31.9843 37.0649Z" fill="#35BCC7"/>
<path d="M35.7204 19.9558V33.3297C35.7204 35.3913 34.0472 37.0645 31.9855 37.0645H22.3613C24.423 37.0645 26.0961 35.3913 26.0961 33.3297V19.9558C26.0961 17.8941 24.423 16.2209 22.3613 16.2209H31.9855C34.0472 16.2209 35.7204 17.8941 35.7204 19.9558Z" fill="#20ABB9"/>
<path d="M25.1886 31.6756C24.5179 31.6756 23.8468 31.4194 23.3349 30.9078L20.5069 28.0798C19.4834 27.0563 19.4834 25.3967 20.5069 24.3728C21.5308 23.3493 23.19 23.3493 24.2142 24.3728L25.1886 25.3475L36.2383 14.2974C37.2622 13.2739 38.9214 13.2739 39.9456 14.2974C40.9692 15.3209 40.9692 16.9806 39.9456 18.0044L27.0422 30.9078C26.5303 31.4198 25.8593 31.6756 25.1886 31.6756Z" fill="#FDD330"/>
<path d="M59.0951 29.9473H50.8276C49.3797 29.9473 48.2065 28.7738 48.2065 27.3263C48.2065 25.8787 49.38 24.7052 50.8276 24.7052H59.0951C60.5431 24.7052 61.7162 25.8787 61.7162 27.3263C61.7165 28.7738 60.5431 29.9473 59.0951 29.9473Z" fill="#C9C0C7"/>
<path d="M97.7857 39.686H50.8276C49.3797 39.686 48.2065 38.5125 48.2065 37.0649C48.2065 35.6173 49.38 34.4438 50.8276 34.4438H97.7857C99.2336 34.4438 100.407 35.6173 100.407 37.0649C100.407 38.5121 99.2336 39.686 97.7857 39.686Z" fill="#C9C0C7"/>
<path d="M31.9843 71.0377H18.6093C16.5467 71.0377 14.8745 69.3656 14.8745 67.3029V53.9283C14.8745 51.8657 16.5467 50.1935 18.6093 50.1935H31.984C34.0466 50.1935 35.7188 51.8657 35.7188 53.9283V67.3029C35.7188 69.3656 34.0469 71.0377 31.9843 71.0377Z" fill="#35BCC7"/>
<path d="M35.7204 53.9287V67.3026C35.7204 69.3642 34.0472 71.0374 31.9855 71.0374H22.3613C24.423 71.0374 26.0961 69.3642 26.0961 67.3026V53.9287C26.0961 51.867 24.423 50.1938 22.3613 50.1938H31.9855C34.0472 50.1938 35.7204 51.867 35.7204 53.9287Z" fill="#20ABB9"/>
<path d="M25.1885 65.6484C24.5178 65.6484 23.8468 65.3926 23.3352 64.8807L20.5072 62.0527C19.4833 61.0292 19.4833 59.3696 20.5069 58.3457C21.5307 57.3222 23.1903 57.3219 24.2139 58.3457L25.1885 59.32L36.2383 48.27C37.2621 47.2464 38.9214 47.2464 39.9456 48.27C40.9691 49.2935 40.9691 50.9531 39.9456 51.977L27.0422 64.8804C26.5303 65.3926 25.8592 65.6484 25.1885 65.6484Z" fill="#FDD330"/>
<path d="M59.0951 63.9203H50.8276C49.3797 63.9203 48.2065 62.7469 48.2065 61.2993C48.2065 59.8517 49.38 58.6782 50.8276 58.6782H59.0951C60.5431 58.6782 61.7162 59.8517 61.7162 61.2993C61.7162 62.7469 60.5431 63.9203 59.0951 63.9203Z" fill="#C9C0C7"/>
<path d="M97.7857 73.6592H50.8276C49.3797 73.6592 48.2065 72.4858 48.2065 71.0382C48.2065 69.5906 49.38 68.4171 50.8276 68.4171H97.7857C99.2336 68.4171 100.407 69.5906 100.407 71.0382C100.407 72.4858 99.2336 73.6592 97.7857 73.6592Z" fill="#C9C0C7"/>
<path d="M31.9843 105.011H18.6093C16.5467 105.011 14.8745 103.339 14.8745 101.276V87.9013C14.8745 85.8387 16.5467 84.1665 18.6093 84.1665H31.984C34.0466 84.1665 35.7188 85.8387 35.7188 87.9013V101.276C35.7188 103.339 34.0469 105.011 31.9843 105.011Z" fill="#FCA62F"/>
<path d="M35.7199 87.9019V101.276C35.7199 103.338 34.0467 105.011 31.985 105.011H22.3608C24.4225 105.011 26.0957 103.338 26.0957 101.276V87.9019C26.0957 85.8403 24.4225 84.1671 22.3608 84.1671H31.985C34.0467 84.1671 35.7199 85.8403 35.7199 87.9019Z" fill="#F98824"/>
<path d="M59.0951 97.8936H50.8276C49.3797 97.8936 48.2065 96.7201 48.2065 95.2725C48.2065 93.825 49.38 92.6515 50.8276 92.6515H59.0951C60.5431 92.6515 61.7162 93.825 61.7162 95.2725C61.7165 96.7198 60.5431 97.8936 59.0951 97.8936Z" fill="#C9C0C7"/>
<path d="M97.7857 107.632H50.8276C49.3797 107.632 48.2065 106.459 48.2065 105.011C48.2065 103.564 49.38 102.39 50.8276 102.39H97.7857C99.2336 102.39 100.407 103.564 100.407 105.011C100.407 106.459 99.2336 107.632 97.7857 107.632Z" fill="#C9C0C7"/>
<path d="M31.9843 138.984H18.6093C16.5467 138.984 14.8745 137.312 14.8745 135.249V121.875C14.8745 119.812 16.5467 118.14 18.6093 118.14H31.984C34.0466 118.14 35.7188 119.812 35.7188 121.875V135.249C35.7188 137.312 34.0469 138.984 31.9843 138.984Z" fill="#FEE265"/>
<path d="M35.7199 121.875V135.249C35.7199 137.311 34.0467 138.984 31.985 138.984H22.3608C24.4225 138.984 26.0957 137.311 26.0957 135.249V121.875C26.0957 119.813 24.4225 118.14 22.3608 118.14H31.985C34.0467 118.14 35.7199 119.813 35.7199 121.875Z" fill="#FDD330"/>
<path d="M59.0951 131.867H50.8276C49.3797 131.867 48.2065 130.693 48.2065 129.246C48.2065 127.798 49.38 126.625 50.8276 126.625H59.0951C60.5431 126.625 61.7162 127.798 61.7162 129.246C61.7165 130.693 60.5431 131.867 59.0951 131.867Z" fill="#C9C0C7"/>
<path d="M97.7857 141.605H50.8276C49.3797 141.605 48.2065 140.432 48.2065 138.984C48.2065 137.536 49.38 136.363 50.8276 136.363H97.7857C99.2336 136.363 100.407 137.536 100.407 138.984C100.407 140.432 99.2336 141.605 97.7857 141.605Z" fill="#C9C0C7"/>
<path d="M120.423 158.285C149.845 158.285 173.697 134.433 173.697 105.011C173.697 75.5889 149.845 51.7375 120.423 51.7375C91.0008 51.7375 67.1494 75.5889 67.1494 105.011C67.1494 134.433 91.0008 158.285 120.423 158.285Z" fill="#FFB4C6"/>
<path d="M173.695 105.011C173.698 134.433 149.846 158.284 120.425 158.284C118.456 158.284 116.514 158.176 114.602 157.969C141.284 155.068 162.05 132.464 162.05 105.011C162.05 77.5571 141.281 54.9532 114.599 52.0519C116.511 51.8449 118.453 51.7371 120.422 51.7371C149.844 51.7371 173.695 75.5888 173.695 105.011Z" fill="#FFB4C6"/>
<path d="M120.423 145.827C142.965 145.827 161.24 127.553 161.24 105.011C161.24 82.4688 142.965 64.1947 120.423 64.1947C97.881 64.1947 79.6069 82.4688 79.6069 105.011C79.6069 127.553 97.881 145.827 120.423 145.827Z" fill="#F8F3F1"/>
<path d="M161.24 105.011C161.24 127.552 142.966 145.826 120.422 145.826C118.758 145.826 117.116 145.726 115.503 145.533C135.727 143.104 151.4 125.888 151.4 105.011C151.4 84.1332 135.726 66.9172 115.503 64.4889C117.115 64.2952 118.758 64.1954 120.421 64.1954C142.965 64.1954 161.24 82.4695 161.24 105.011Z" fill="#E5E1E5"/>
<path d="M125.735 121.885L117.152 107.574L124.258 103.311L132.842 117.623C133.381 118.522 133.089 119.689 132.189 120.229L128.341 122.537C127.441 123.077 126.274 122.785 125.735 121.885Z" fill="#FEE265"/>
<path d="M120.51 103.505C119.062 103.505 117.889 102.332 117.889 100.884V84.5717C117.889 83.1242 119.063 81.9507 120.51 81.9507C121.958 81.9507 123.131 83.1242 123.131 84.5717V100.884C123.132 102.332 121.958 103.505 120.51 103.505Z" fill="#5591D6"/>
<path d="M120.423 110.885C123.667 110.885 126.297 108.255 126.297 105.011C126.297 101.767 123.667 99.1372 120.423 99.1372C117.179 99.1372 114.549 101.767 114.549 105.011C114.549 108.255 117.179 110.885 120.423 110.885Z" fill="#FB9927"/>
<path d="M150.95 107.563C150.946 107.563 150.943 107.563 150.939 107.563H150.9C149.452 107.556 148.284 106.378 148.29 104.93C148.297 103.486 149.469 102.32 150.911 102.32H150.923L150.962 102.321C152.409 102.327 153.578 103.506 153.571 104.953C153.565 106.397 152.392 107.563 150.95 107.563Z" fill="#B9AFB9"/>
<path d="M89.9345 107.563H89.8955C88.4475 107.563 87.2744 106.389 87.2744 104.942C87.2744 103.494 88.4479 102.321 89.8955 102.321H89.9345C91.3824 102.321 92.5555 103.494 92.5555 104.942C92.5555 106.389 91.3821 107.563 89.9345 107.563Z" fill="#B9AFB9"/>
<path d="M120.335 77.0743C118.887 77.0743 117.714 75.9009 117.714 74.4533V74.4143C117.714 72.9667 118.888 71.7932 120.335 71.7932C121.783 71.7932 122.956 72.9667 122.956 74.4143V74.4533C122.957 75.9009 121.783 77.0743 120.335 77.0743Z" fill="#B9AFB9"/>
<path d="M120.51 138.09C119.062 138.09 117.889 136.917 117.889 135.469V135.43C117.889 133.982 119.063 132.809 120.51 132.809C121.958 132.809 123.131 133.982 123.131 135.43V135.469C123.132 136.916 121.958 138.09 120.51 138.09Z" fill="#B9AFB9"/>
<path d="M105.106 81.2035C104.199 81.2035 103.317 80.7323 102.832 79.8896L102.812 79.8557C102.09 78.6011 102.522 76.9985 103.776 76.2762C105.03 75.5543 106.633 75.9852 107.356 77.2401L107.375 77.274C108.097 78.5285 107.666 80.1312 106.411 80.8534C105.999 81.0906 105.549 81.2035 105.106 81.2035Z" fill="#B9AFB9"/>
<path d="M93.9728 92.3949C93.5294 92.3949 93.0802 92.2823 92.6687 92.0455L92.6344 92.0258C91.3795 91.3042 90.947 89.7019 91.6686 88.4467C92.3905 87.1915 93.9931 86.7599 95.2473 87.4809L95.2816 87.5005C96.5365 88.2221 96.969 89.8244 96.2475 91.0796C95.7627 91.923 94.8803 92.3949 93.9728 92.3949Z" fill="#B9AFB9"/>
<path d="M146.901 122.751C146.457 122.751 146.008 122.638 145.596 122.401L145.562 122.382C144.307 121.659 143.876 120.057 144.598 118.802C145.321 117.548 146.924 117.116 148.177 117.838L148.211 117.858C149.466 118.58 149.897 120.183 149.175 121.437C148.69 122.28 147.808 122.751 146.901 122.751Z" fill="#B9AFB9"/>
<path d="M135.74 81.2034C135.298 81.2034 134.85 81.0914 134.44 80.856C133.184 80.1364 132.749 78.5348 133.468 77.2786L133.488 77.2446C134.208 75.9884 135.809 75.5542 137.065 76.273C138.321 76.9926 138.756 78.5942 138.036 79.8504L138.017 79.8844C137.533 80.7298 136.649 81.2034 135.74 81.2034Z" fill="#B9AFB9"/>
<path d="M105.081 133.957C104.637 133.957 104.188 133.844 103.776 133.607C102.521 132.885 102.09 131.282 102.812 130.027L102.831 129.994C103.555 128.739 105.157 128.308 106.411 129.03C107.665 129.752 108.097 131.355 107.374 132.609L107.355 132.643C106.87 133.486 105.988 133.957 105.081 133.957Z" fill="#B9AFB9"/>
<path d="M146.872 92.3946C145.965 92.3946 145.083 91.9227 144.598 91.0797C143.876 89.8244 144.309 88.2222 145.564 87.5006L145.598 87.4809C146.852 86.7593 148.455 87.1919 149.177 88.4468C149.898 89.702 149.466 91.3043 148.211 92.0258L148.177 92.0455C147.765 92.282 147.315 92.3946 146.872 92.3946Z" fill="#B9AFB9"/>
<path d="M93.9442 122.751C93.0408 122.751 92.1614 122.284 91.6753 121.446C90.9483 120.194 91.3737 118.59 92.6255 117.863L92.6594 117.843C93.9109 117.116 95.5152 117.542 96.2423 118.793C96.9693 120.045 96.5439 121.65 95.292 122.376L95.2581 122.396C94.8439 122.637 94.3906 122.751 93.9442 122.751Z" fill="#B9AFB9"/>
<path d="M135.764 133.957C134.857 133.957 133.976 133.486 133.49 132.643L133.471 132.609C132.749 131.355 133.18 129.752 134.435 129.03C135.689 128.307 137.292 128.739 138.014 129.994L138.034 130.027C138.756 131.282 138.324 132.885 137.07 133.607C136.658 133.844 136.208 133.957 135.764 133.957Z" fill="#B9AFB9"/>
</svg>
