<svg width="148" height="148" viewBox="0 0 148 148" fill="none" xmlns="http://www.w3.org/2000/svg">
<path d="M24.6665 0V148H111L148 111V0H24.6665Z" fill="#EFEEEE"/>
<path d="M111 111V148L148 111H111Z" fill="#ABABAB"/>
<path d="M74 148H111V111L74 148Z" fill="#DEDEDD"/>
<path d="M0 37V80.1667H98.6667V37H0Z" fill="#FFB4C6"/>
<path d="M24.7898 50.1473C24.3334 49.2655 23.5009 48.8276 22.2923 48.8276C21.6263 48.8276 21.0774 49.0065 20.6458 49.3703C20.2141 49.728 19.8749 50.3015 19.6283 51.1031C19.3816 51.9048 19.2089 52.9531 19.1103 54.2543C19.0054 55.5493 18.9623 57.1341 18.9623 59.0088C18.9623 61.0068 19.0301 62.6225 19.1658 63.8558C19.2953 65.0891 19.5111 66.0388 19.7948 66.7233C20.0784 67.4078 20.4361 67.8641 20.8678 68.0923C21.2994 68.3266 21.7989 68.45 22.3663 68.45C22.8349 68.45 23.2728 68.3698 23.6798 68.2095C24.0868 68.0491 24.4383 67.7285 24.7343 67.2475C25.0364 66.7665 25.2708 66.0881 25.4373 65.2125C25.6099 64.3368 25.6963 63.1836 25.6963 61.753H31.0181C31.0181 63.1775 30.9071 64.5403 30.6851 65.823C30.4631 67.1056 30.0438 68.228 29.4456 69.19C28.8351 70.1458 27.9903 70.8981 26.8926 71.4408C25.7949 71.9835 24.3704 72.261 22.6191 72.261C20.6273 72.261 19.0301 71.9341 17.8523 71.299C16.6683 70.6576 15.7618 69.7326 15.1328 68.524C14.5038 67.3153 14.0968 65.8723 13.9118 64.195C13.7329 62.5238 13.6343 60.6676 13.6343 58.6511C13.6343 56.6531 13.7329 54.8093 13.9118 53.1196C14.0968 51.4361 14.5099 49.9808 15.1328 48.7721C15.7679 47.5696 16.6683 46.62 17.8523 45.9416C19.0301 45.2695 20.6273 44.9241 22.6191 44.9241C24.5246 44.9241 26.0169 45.2325 27.1146 45.8491C28.2123 46.4658 29.0324 47.249 29.5689 48.1986C30.1054 49.1483 30.4569 50.172 30.5864 51.2696C30.7221 52.3673 30.7899 53.3971 30.7899 54.3591H25.4681C25.4681 52.4166 25.2399 51.0168 24.7898 50.1473Z" fill="white"/>
<path d="M42.038 64.3676C42.038 64.9843 42.0935 65.5455 42.186 66.045C42.2908 66.5506 42.4696 66.9761 42.741 67.3215C43.0123 67.673 43.3823 67.9443 43.8386 68.1416C44.2888 68.3328 44.8685 68.4376 45.553 68.4376C46.3731 68.4376 47.1008 68.1725 47.7545 67.6421C48.402 67.1118 48.735 66.2855 48.735 65.1816C48.735 64.5896 48.6486 64.0778 48.4945 63.6461C48.3341 63.2145 48.069 62.826 47.699 62.4868C47.3228 62.1353 46.8356 61.827 46.2375 61.5433C45.6393 61.2596 44.887 60.9698 43.999 60.6738C42.8211 60.2791 41.7975 59.8413 40.928 59.3726C40.0646 58.9101 39.3431 58.3613 38.7635 57.7261C38.1838 57.0971 37.7583 56.3695 37.487 55.5431C37.2156 54.7106 37.08 53.761 37.08 52.6695C37.08 50.0548 37.8076 48.1123 39.263 46.8296C40.7121 45.547 42.7163 44.9056 45.257 44.9056C46.441 44.9056 47.5325 45.0351 48.5315 45.2941C49.5305 45.5531 50.3938 45.9663 51.1215 46.5521C51.8491 47.1318 52.4165 47.8718 52.8235 48.766C53.2243 49.6663 53.434 50.7455 53.434 52.0035V52.7435H48.3341C48.3341 51.4855 48.1121 50.5173 47.6743 49.8328C47.2303 49.1606 46.4903 48.8153 45.4543 48.8153C44.8623 48.8153 44.369 48.9078 43.9743 49.0743C43.5858 49.247 43.2651 49.4751 43.0308 49.7588C42.7965 50.0425 42.63 50.3816 42.5436 50.7516C42.4511 51.1216 42.4141 51.504 42.4141 51.8986C42.4141 52.7188 42.5868 53.3971 42.9321 53.9521C43.2775 54.5133 44.0175 55.0251 45.1521 55.4876L49.2591 57.2636C50.2705 57.7076 51.0968 58.1701 51.732 58.6573C52.3733 59.1383 52.8913 59.6563 53.2675 60.2113C53.6498 60.7663 53.915 61.3706 54.063 62.0428C54.211 62.7026 54.285 63.4488 54.285 64.2566C54.285 67.044 53.4771 69.0728 51.8615 70.3431C50.2458 71.6135 47.995 72.2548 45.109 72.2548C42.0996 72.2548 39.9475 71.6011 38.6463 70.2938C37.3513 68.9865 36.71 67.1118 36.71 64.6698V63.5968H42.038V64.3676Z" fill="white"/>
<path d="M68.3511 64.9596H68.4682L72.3902 45.4236H77.9094L71.8414 71.8416H64.9964L58.9346 45.4236H64.6326L68.3511 64.9596Z" fill="white"/>
</svg>
