<svg width="293" height="236" viewBox="0 0 293 236" fill="none" xmlns="http://www.w3.org/2000/svg">
<path d="M104.875 113.394C110.019 114.242 115.252 114.471 118.634 110.388C121.864 106.496 122.933 101.247 122.799 96.1314C122.666 91.0162 122.036 86.0347 121.019 78.467C117.204 79.2633 112.384 80.0468 108.938 81.9133C105.492 83.7797 102.503 86.8629 101.619 90.7486C100.85 94.1057 101.721 97.6092 102.643 100.941C103.775 104.916 103.578 109.464 104.875 113.394Z" fill="#FCC59F"/>
<path d="M123.759 77.4732C123.613 77.9767 123.368 78.4464 123.041 78.8555C121.044 81.082 118.429 82.6612 115.532 83.391C115.576 86.0601 115.589 89.2005 115.57 92.513C115.525 99.5647 115.309 107.394 114.819 113.076C101.276 116.382 85.8571 116.522 73.0831 110.846C67.9138 103.329 61.123 91.9142 55.9155 84.4038C56.4208 81.8564 57.2034 79.3721 58.2491 76.9954C59.4317 74.2563 60.9577 71.619 62.6363 70.0329C57.3143 71.3069 55.7629 67.1536 56.4687 65.1151C58.5034 59.1909 69.8213 57.5857 71.945 57.5475C72.2549 54.7111 73.3005 52.0054 74.9779 49.6995C76.5783 47.457 78.7408 45.6772 81.2472 44.5397C82.7987 43.839 84.6172 43.4249 86.175 44.1193C87.7328 44.8136 88.6802 47.0177 87.6628 48.4063C92.8576 44.9856 98.9172 43.6606 105.091 43.9473C107.325 43.9732 109.526 44.4977 111.532 45.4825C112.545 45.9914 113.44 46.7081 114.159 47.5861C114.877 48.464 115.404 49.4836 115.703 50.5786C116.225 52.8017 115.404 55.4071 113.491 56.5665C117.852 56.0505 120.695 56.9741 122.767 59.5286C124.497 61.6562 126.36 68.4149 121.273 70.7017C123.976 71.7082 124.491 75.1863 123.759 77.4732Z" fill="#560829"/>
<path d="M123.759 77.4734C123.715 77.2377 123.67 77.002 123.607 76.7726C123.015 74.4476 121.254 71.6766 119.016 71.0395C119.738 70.0476 120.178 68.8783 120.29 67.6557C120.402 66.4332 120.182 65.2031 119.652 64.0961C119.11 63.0147 118.337 62.0663 117.387 61.3186C116.438 60.571 115.335 60.0425 114.158 59.7708C111.837 59.2166 109.281 58.8344 107.107 59.8409C109.014 56.5539 107.507 51.9547 104.449 49.7761C101.391 47.5975 97.2831 47.5211 93.7352 48.6422C90.0849 49.8491 86.6346 51.5946 83.4982 53.8211C83.7842 53.0236 83.8154 52.1567 83.5876 51.3406C83.3597 50.5245 82.8841 49.7996 82.2265 49.2665C81.5634 48.7658 80.7909 48.4301 79.9729 48.2872C79.1548 48.1443 78.3145 48.1983 77.5213 48.4447C76.617 48.7111 75.7697 49.1431 75.0225 49.7188C76.6229 47.4763 78.7855 45.6965 81.2919 44.559C82.8433 43.8583 84.6618 43.4442 86.2196 44.1385C87.7774 44.8329 88.7248 47.0369 87.7075 48.4256C92.9022 45.0049 98.9618 43.6799 105.136 43.9666C107.37 43.9925 109.57 44.517 111.577 45.5017C112.59 46.0107 113.485 46.7274 114.203 47.6054C114.922 48.4833 115.448 49.5029 115.748 50.5978C116.269 52.821 115.449 55.4264 113.535 56.5857C117.897 56.0698 120.739 56.9934 122.812 59.5478C124.541 61.6755 126.404 68.4342 121.318 70.721C123.976 71.7084 124.491 75.1865 123.759 77.4734Z" fill="#7F1833"/>
<path d="M115.57 92.5132C115.525 99.5649 115.309 107.394 114.819 113.076C101.276 116.382 85.8571 116.522 73.0831 110.846C67.9138 103.33 61.123 91.9144 55.9155 84.404C56.4208 81.8565 57.2034 79.3722 58.2491 76.9956C66.7974 85.3073 77.5619 90.9661 89.2461 93.2904C97.9718 94.9628 106.957 94.6975 115.57 92.5132V92.5132Z" fill="#470626"/>
<path d="M111.278 97.1058C111.278 100.527 112.925 103.304 114.959 103.304C116.994 103.304 118.635 100.527 118.635 97.1058C118.635 93.6851 116.988 90.9077 114.959 90.9077C112.931 90.9077 111.278 93.6787 111.278 97.1058Z" fill="#FCC59F"/>
<path d="M216.172 85.5698C215.863 87.315 215.041 88.9282 213.812 90.2035C212.583 91.4788 211.003 92.3583 209.273 92.7298C212.37 95.5963 213.088 101.724 210.742 105.202C208.396 108.681 203.83 110.439 199.933 108.782C201.09 112.726 198.661 117.35 194.732 118.745C190.802 120.14 185.016 118.299 183.331 114.541C182.797 116.339 181.711 117.922 180.227 119.066C178.743 120.209 176.937 120.855 175.065 120.911C171.295 120.969 166.043 117.796 164.974 114.261C163.897 115.691 162.372 116.719 160.644 117.181C158.915 117.643 157.082 117.512 155.437 116.809C152.181 115.331 151.158 111.127 152.124 107.751C150.537 108.643 148.695 108.97 146.899 108.68C145.102 108.39 143.457 107.498 142.231 106.152C139.903 103.419 139.255 98.4374 141.703 95.7938C139.407 96.3034 136.947 94.9657 135.796 92.9591C135.034 91.5527 134.755 89.9345 135.001 88.3535C135.092 87.643 135.267 86.9459 135.522 86.2769C136.42 84.1694 137.775 82.2891 139.49 80.7731C138.475 80.2685 137.594 79.5284 136.922 78.6144C136.25 77.7003 135.805 76.6387 135.624 75.5177C135.48 74.6557 135.515 73.7732 135.726 72.9251C136.171 71.3957 137.105 70.0553 138.385 69.1103C139.665 68.1652 141.219 67.668 142.809 67.6952C140.374 64.1917 140.183 58.6178 142.669 55.1398C143.971 53.4114 145.745 52.0973 147.775 51.3558C149.806 50.6144 152.007 50.4772 154.114 50.9609C154.299 46.6675 156.944 43.1639 160.918 41.323C162.926 40.4229 165.135 40.063 167.324 40.2786C169.514 40.4942 171.61 41.2779 173.406 42.5524C174.989 38.8769 180.088 37.4563 184.056 38.3863C186.014 38.8771 187.745 40.0271 188.958 41.6436C190.171 43.2602 190.793 45.2452 190.719 47.2663C193.574 44.5972 199.526 44.5845 202.858 46.6675C204.477 47.6984 205.711 49.2371 206.367 51.0438C207.078 52.8917 207.125 54.9297 206.501 56.8087C209.299 57.089 212.611 59.4969 214.506 62.1915C215.153 63.0575 215.63 64.039 215.911 65.0835C216.32 66.917 216.159 68.8318 215.451 70.5714C214.743 72.311 213.522 73.7923 211.95 74.817C215.104 76.486 216.687 82.1172 216.172 85.5698Z" fill="#3A4141"/>
<path d="M216.172 85.5696C215.863 87.3148 215.041 88.928 213.812 90.2033C212.583 91.4786 211.003 92.3581 209.273 92.7296C212.37 95.5961 213.088 101.724 210.742 105.202C208.396 108.68 203.83 110.438 199.933 108.782C201.09 112.725 198.661 117.35 194.732 118.745C190.802 120.14 185.016 118.299 183.331 114.541C182.797 116.339 181.711 117.922 180.227 119.066C178.743 120.209 176.937 120.855 175.065 120.911C171.295 120.968 166.043 117.796 164.974 114.261C163.897 115.691 162.372 116.719 160.644 117.181C158.915 117.643 157.082 117.512 155.437 116.809C152.181 115.331 151.158 111.126 152.124 107.75C150.537 108.642 148.695 108.97 146.899 108.68C145.102 108.389 143.457 107.498 142.231 106.151C139.903 103.419 139.255 98.4372 141.703 95.7936C139.407 96.3032 136.947 94.9655 135.796 92.9589C135.034 91.5525 134.755 89.9343 135.001 88.3533C135.376 88.8245 135.802 89.2519 136.273 89.6273C137.341 90.4477 138.563 91.0433 139.867 91.3783C141.17 91.7132 142.528 91.7807 143.858 91.5766C146.51 91.2262 149.581 89.6655 151.73 88.0348C151.829 89.6523 152.459 91.1917 153.522 92.4138C154.584 93.6359 156.019 94.4724 157.605 94.7935C160.74 95.3031 163.747 93.1118 164.885 90.0541C165.603 92.0909 166.977 93.8307 168.79 95C170.603 96.1693 172.752 96.7017 174.9 96.5134C179.134 96.0102 182.791 91.4874 183.236 87.1303C183.497 88.1293 184.012 89.0434 184.73 89.7836C185.449 90.5238 186.347 91.0647 187.337 91.3536C188.322 91.6099 189.352 91.6475 190.354 91.4637C191.355 91.28 192.305 90.8793 193.136 90.2898C194.899 88.8891 196.185 86.9751 196.817 84.8115C197.748 85.6011 198.895 86.0901 200.108 86.214C201.321 86.3379 202.544 86.091 203.614 85.5059C204.681 84.877 205.574 83.9912 206.213 82.9288C206.851 81.8665 207.215 80.6612 207.27 79.4224C207.379 76.7913 206.444 74.2239 204.67 72.2815C207.175 72.6446 209.928 72.4854 211.918 70.8992C213.908 69.313 214.805 66.4019 214.671 63.7392C214.645 63.2121 214.59 62.6868 214.506 62.1658C215.153 63.0319 215.63 64.0133 215.911 65.0578C216.32 66.8913 216.159 68.8061 215.451 70.5457C214.743 72.2853 213.522 73.7666 211.95 74.7913C215.104 76.4858 216.687 82.117 216.172 85.5696Z" fill="#1C2C2F"/>
<path d="M206.355 51.0565C205.07 50.541 203.72 50.2107 202.343 50.0755C198.267 49.6741 193.702 50.8654 190.567 53.579C189.758 51.1602 188.297 49.0128 186.345 47.3745C185.382 46.5708 184.264 45.9741 183.061 45.6212C181.857 45.2684 180.595 45.167 179.351 45.3234C176.896 45.6992 173.685 46.5018 172.795 48.8906C171.397 47.799 169.719 47.1254 167.955 46.9474C166.191 46.7693 164.413 47.094 162.825 47.8841C161.292 48.677 160.013 49.8886 159.138 51.3788C158.262 52.8691 157.826 54.5771 157.879 56.3054C155.03 56.1462 151.851 56.0888 149.702 58.0317C148.131 59.4523 147.464 61.7073 147.47 63.854C147.461 65.9258 147.752 67.9879 148.335 69.9757C145.092 70.1477 141.741 70.4598 138.931 72.1288C137.553 72.9561 136.413 74.1284 135.624 75.5304C135.48 74.6684 135.515 73.7859 135.726 72.9378C136.171 71.4084 137.105 70.068 138.385 69.1229C139.665 68.1779 141.22 67.6807 142.809 67.7079C140.374 64.2044 140.183 58.6305 142.669 55.1524C143.971 53.4241 145.745 52.11 147.775 51.3685C149.806 50.6271 152.008 50.4899 154.114 50.9737C154.299 46.6802 156.944 43.1766 160.918 41.3357C162.927 40.4356 165.135 40.0757 167.325 40.2913C169.514 40.5068 171.61 41.2906 173.406 42.5651C174.989 38.8895 180.088 37.469 184.056 38.399C186.014 38.8898 187.745 40.0397 188.958 41.6563C190.171 43.2729 190.793 45.2579 190.72 47.279C193.574 44.6099 199.526 44.5972 202.858 46.6802C204.473 47.7132 205.702 49.2516 206.355 51.0565V51.0565Z" fill="#474F4F"/>
<path d="M41.9717 97.8449L28.1677 133.874C28.1677 133.874 22.9094 127.084 17.829 120.293C16.5192 118.554 15.2285 116.815 14.014 115.197C11.7568 112.114 9.88105 109.464 8.99087 107.967C5.81169 102.661 3.94873 37.3607 3.94873 37.3607L21.2498 34.354C21.2498 34.354 32.1671 85.4041 33.5469 88.7421C34.0428 89.9524 35.2764 91.4621 36.6434 92.9208C36.7579 93.0355 36.8723 93.1629 36.9932 93.2776C38.5744 94.8835 40.2361 96.4079 41.9717 97.8449V97.8449Z" fill="#FCC59F"/>
<path d="M41.9718 97.8448L28.1678 133.874C28.1678 133.874 22.9094 127.084 17.8291 120.293C18.3486 116.03 19.6415 111.898 21.6441 108.101C25.0602 101.635 30.4493 96.4325 37.0251 93.252C38.5954 94.8658 40.2464 96.3987 41.9718 97.8448Z" fill="#E09377"/>
<path d="M21.0528 35.2266C22.669 34.8828 24.2009 34.2209 25.5598 33.2794C26.9187 32.3379 28.0775 31.1355 28.969 29.7419C30.7786 26.9011 31.8477 23.6508 32.0782 20.2887C32.292 18.8321 32.148 17.3452 31.6585 15.957C31.099 14.6065 29.8401 13.4726 28.4158 13.4917C28.81 11.6236 28.8788 9.70124 28.6192 7.8096C28.3204 5.89857 27.2204 3.98753 25.44 3.35052C23.6597 2.71351 21.3452 3.68814 20.9892 5.58644C20.3029 5.0317 19.4923 4.65253 18.6271 4.48163C17.762 4.31073 16.8684 4.35321 16.0233 4.60543C15.2145 4.87927 14.4864 5.35048 13.9048 5.97658C13.3231 6.60268 12.9062 7.36397 12.6915 8.19181C12.0024 7.60887 11.1594 7.23847 10.2645 7.12542C9.3697 7.01237 8.46134 7.16151 7.64932 7.5548C6.86233 7.99026 6.21467 8.64028 5.7814 9.4295C5.34813 10.2187 5.14701 11.1148 5.20137 12.0139C4.78172 11.2877 3.56727 11.3769 2.89964 11.8928C2.27063 12.4568 1.8272 13.1987 1.62797 14.0205C-1.23966 22.5883 -0.502104 31.5192 4.6291 38.8639" fill="#FCC59F"/>
<path d="M28.2632 14.4536C27.763 17.695 27.0017 20.8905 25.9868 24.0088" stroke="#CC524C" stroke-width="2" stroke-linecap="round" stroke-linejoin="round"/>
<path d="M27.8564 18.3777C28.7657 19.7473 29.1281 21.1805 29.764 22.7221" stroke="#CC524C" stroke-width="2" stroke-linecap="round" stroke-linejoin="round"/>
<path d="M74.0752 117.764C62.1902 110.646 51.0681 102.321 40.8845 92.9209C40.8845 92.9209 19.1961 98.8005 24.2383 142.958L48.7753 166.33" fill="#60335B"/>
<path d="M102.313 129.6C102.313 129.6 95.3756 127.498 86.7982 124.771C75.1306 121.058 60.3982 116.197 55.9474 113.898C48.7751 110.209 43.8665 109.617 42.7919 99.017C42.0226 91.5512 45.0936 82.4929 52.9271 82.4929C59.8705 82.4929 64.3214 89.8313 67.367 91.5512C69.7006 92.8698 88.3496 97.743 96.9907 99.9662L101.327 101.068L102.313 129.6Z" fill="#AF483A"/>
<path d="M102.313 129.6C102.313 129.6 95.3758 127.498 86.7983 124.771C88.2429 116.653 91.2932 108.906 95.77 101.985C96.1515 101.399 96.5585 100.711 96.9908 99.9661L101.327 101.068L102.313 129.6Z" fill="#9E332E"/>
<path d="M287.5 36.2714C287.5 36.2714 278.891 101.004 275.178 105.929C274.141 107.305 271.999 109.751 269.455 112.566C262.843 119.854 253.477 129.6 253.477 129.6L243.481 92.2647C245.485 90.9263 247.414 89.4803 249.261 87.933C250.631 86.8586 251.816 85.5676 252.771 84.111C254.488 80.9259 270.632 31.3792 270.632 31.3792L287.5 36.2714Z" fill="#AF483A"/>
<path d="M269.436 112.566C262.823 119.854 253.457 129.6 253.457 129.6L243.462 92.2648C245.465 90.9264 247.394 89.4804 249.242 87.9331C258.063 94.1742 265.039 102.684 269.436 112.566V112.566Z" fill="#9E332E"/>
<path d="M270.746 32.2964C269.173 31.7767 267.718 30.9509 266.464 29.8665C265.211 28.7821 264.183 27.4604 263.44 25.9773C261.938 22.9571 261.21 19.6098 261.323 16.2374C261.261 14.7655 261.558 13.3007 262.188 11.9694C262.887 10.6954 264.254 9.70799 265.672 9.87361C265.47 7.97594 265.599 6.05759 266.053 4.20422C266.556 2.34414 267.84 0.585991 269.659 0.101862C271.477 -0.382267 273.703 0.891753 273.83 2.81553C274.573 2.33909 275.421 2.05074 276.301 1.97529C277.18 1.89983 278.065 2.03953 278.878 2.38236C279.654 2.7438 280.328 3.29185 280.84 3.97763C281.353 4.66342 281.688 5.46563 281.816 6.31272C282.563 5.80431 283.441 5.52352 284.343 5.5043C285.246 5.48508 286.135 5.72826 286.903 6.20443C287.641 6.72491 288.218 7.44307 288.567 8.27672C288.917 9.11038 289.025 10.0258 288.88 10.9183C289.37 10.2367 290.565 10.4851 291.175 11.0521C291.744 11.68 292.108 12.4666 292.218 13.3071C294.189 22.1361 292.53 30.9396 286.661 37.6919" fill="#AF483A"/>
<path d="M265.723 10.8481C265.885 14.1322 266.31 17.3978 266.994 20.6135" stroke="#751A21" stroke-width="2" stroke-linecap="round" stroke-linejoin="round"/>
<path d="M265.723 14.7976C264.674 16.0716 264.159 17.4412 263.396 18.9063" stroke="#751A21" stroke-width="2" stroke-linecap="round" stroke-linejoin="round"/>
<path d="M229.836 189.39L233.015 232.617L133.265 235.802L136.959 176.471L137.316 170.674L131.593 168.884L125.832 167.075L90.2254 155.864C89.8122 133.957 91.8342 112.713 97.9763 99.0169C99.159 99.1125 154.375 115.286 178.632 113.898C202.889 112.509 245.974 87.5635 245.974 87.5635C245.974 87.5635 264.667 104.062 264.318 137.467L227.897 164.03L229.836 189.39Z" fill="#DC4561"/>
<path d="M225.233 158.138C222.057 143.817 217.487 129.842 211.588 116.414C220.941 128.288 225.773 145.27 225.233 158.138Z" fill="#C63461"/>
<path d="M227.891 158.902C230.071 144.693 229.983 130.226 227.63 116.044C230.535 122.127 232.185 128.735 232.481 135.472C232.777 142.209 231.713 148.937 229.353 155.252" fill="#C63461"/>
<path d="M138.123 160.871C138.27 145.901 140.072 130.993 143.496 116.42C137.227 129.695 134.989 146.462 138.123 160.871Z" fill="#C63461"/>
<path d="M136.26 165.196C130.156 149.001 126.264 132.054 124.688 114.815C122.036 132.581 125.591 150.972 136.26 165.196Z" fill="#C63461"/>
<path d="M233.034 232.617L133.284 235.802L136.978 176.471C142.892 182.446 151.437 186.205 159.621 188.574C182.54 195.073 206.77 195.358 229.836 189.403L233.034 232.617Z" fill="#C63461"/>
<path d="M218.283 115.229C218.283 115.229 186.091 174.516 175.307 175.745C171.201 176.099 167.07 176.031 162.978 175.541C157.486 174.95 152.031 174.059 146.637 172.872L144.265 139.416C149.715 140.139 155.2 140.564 160.695 140.69C164.288 140.76 167.232 140.608 167.95 140.015C169.947 138.372 200.817 108.916 200.817 108.916L218.283 115.229Z" fill="#FCC59F"/>
<path d="M162.965 175.541C157.474 174.95 152.019 174.059 146.624 172.872L144.252 139.416C149.702 140.139 155.187 140.564 160.683 140.69C164.475 151.907 165.262 163.924 162.965 175.541V175.541Z" fill="#E09377"/>
<path d="M200.919 112.483C200.664 106.062 200.41 99.5712 201.554 93.2521C201.955 91.0544 202.61 88.7484 204.238 87.2833C205.865 85.8182 208.746 85.7099 209.922 87.5827C210.153 86.719 210.625 85.9392 211.283 85.3345C211.941 84.7298 212.757 84.3253 213.635 84.1683C214.492 84.0558 215.362 84.2033 216.134 84.5916C216.906 84.98 217.544 85.5915 217.965 86.3469C218.938 84.92 221.265 84.5314 222.823 85.1684C223.613 85.5255 224.269 86.1242 224.697 86.8786C225.126 87.6329 225.304 88.5039 225.208 89.3663C226.086 89.182 226.993 89.186 227.87 89.3781C228.747 89.5703 229.573 89.9462 230.294 90.4811C231.033 90.9975 231.658 91.6592 232.132 92.4259C232.607 93.1926 232.92 94.0481 233.054 94.9402C231.972 95.8289 230.728 96.4995 229.391 96.9149C229.162 105.661 223.758 114.369 216.102 117.936C210.857 116.974 205.865 114.503 200.919 112.483Z" fill="#FCC59F"/>
<path d="M155.271 182.981L132.381 180.739L132.667 184.663L136.482 236L41.9526 233.452L43.9174 207.85L47.3382 163.183L69.2873 119.051C77.3242 121.809 87.5358 125.033 96.6282 127.791C127.784 137.263 158.686 137.792 158.686 137.792C163.448 153.921 160.365 170.77 155.271 182.981Z" fill="#60335B"/>
<path d="M136.502 236L41.9717 233.452L43.9365 207.85C59.5256 210.079 75.4015 209.179 90.6401 205.202C105.879 201.226 120.176 194.253 132.699 184.689L136.502 236Z" fill="#512A51"/>
<path d="M130.97 179.72C125.006 166.98 120.593 149.659 119.983 135.518C117.357 149.774 122.304 168.279 130.97 179.72Z" fill="#512A51"/>
<path d="M132.21 179.72C131.751 168.332 131.963 156.927 132.845 145.563C135.382 157.66 135.134 167.712 132.21 179.72Z" fill="#512A51"/>
<path d="M50.2694 162.922C49.4564 148.069 51.9745 133.222 57.6387 119.471C48.8387 130.836 45.6405 149.213 50.2694 162.922Z" fill="#512A51"/>
<path d="M47.4844 158.571C41.9205 146.224 40.0306 132.53 42.0416 119.134C37.2601 131.97 39.0532 147.914 47.4844 158.571Z" fill="#512A51"/>
</svg>
