<svg width="257" height="202" viewBox="0 0 257 202" fill="none" xmlns="http://www.w3.org/2000/svg">
<path d="M135.859 0.833282L0 41.9272L39.3978 172.517L175.257 131.423L135.859 0.833282Z" fill="#FBFBFB"/>
<path d="M127.316 10.9854L13.1941 45.4639L47.6278 159.734L161.75 125.256L127.316 10.9854Z" fill="#D1D3D4"/>
<path d="M126.281 12.9286L15.1301 46.5093L48.6673 157.804L159.818 124.223L126.281 12.9286Z" fill="#FFB4C6"/>
<path d="M122.893 53.4907C122.968 54.0064 125.604 75.0621 119.959 93.8107C116.774 104.41 110.953 114.276 100.537 119.263C90.1207 124.251 79.5286 122.541 70.3664 118.273C54.0343 110.68 41.9377 95.0728 41.9377 95.0728C46.556 96.3261 51.3 97.0567 56.0809 97.251C80.8839 98.2077 99.3439 83.4287 110.499 70.7872C113.685 67.1855 116.629 63.3749 119.308 59.3806C121.599 55.92 122.819 53.6332 122.893 53.4907Z" fill="#090B0A"/>
<path d="M112.904 51.2923C112.904 51.2923 119.634 48.7206 131.818 50.7902C131.818 50.7902 125.435 53.3958 123.408 57.8743C122.934 58.9125 121.206 58.3832 120.067 58.2C120.067 58.2 119.64 54.1354 112.904 51.2923Z" fill="#090B0A"/>
<path d="M34.2393 100.142C37.4315 94.4928 42.6462 90.2681 48.8297 88.321C48.8297 88.321 43.6183 92.2295 45.9563 99.7005C45.9563 99.7005 42.5679 95.7987 34.2393 100.142Z" fill="#090B0A"/>
<path d="M115.838 98.9744C114.822 104.084 109.102 113.462 99.9468 117.845C90.7914 122.229 81.4869 120.729 73.4089 116.977C76.1942 111.514 84.2518 106.981 95.3115 102.598C105.097 98.7301 109.99 98.954 115.838 98.9744Z" fill="#E81D1E"/>
<path d="M111.481 72.0291C111.954 74.0839 112.277 76.1702 112.45 78.2718C112.58 79.6996 112.627 81.1338 112.592 82.5671C104.569 94.1908 93.6173 99.9789 84.1298 102.836C77.6578 104.834 70.9013 105.751 64.1316 105.55C62.2883 104.688 60.3569 102.727 58.7101 100.712C58.1002 99.9721 57.531 99.2189 57.0227 98.5132C81.8732 99.4496 100.326 84.6706 111.481 72.0291Z" fill="white"/>
<g style="mix-blend-mode:multiply">
<path d="M111.481 72.0291C111.954 74.0839 112.278 76.1702 112.45 78.2718C103.464 89.1966 91.8893 94.944 81.9004 97.95C74.7684 100.154 67.3465 101.275 59.8826 101.275C59.4886 101.113 59.108 100.92 58.7441 100.698C58.1341 99.9585 57.5649 99.2053 57.0566 98.4996C81.8732 99.4496 100.326 84.6706 111.481 72.0291Z" fill="#F1F2F2"/>
</g>
<g opacity="0.7">
<path d="M35.5945 12.9333C35.5945 12.9333 48.8905 27.088 46.478 46.0334L71.1726 40.1367C71.1726 40.1367 70.6101 9.66945 59.0354 0L35.5945 12.9333Z" fill="#F9F9F9"/>
</g>
<path d="M226.009 140.496C242.967 140.496 256.714 126.73 256.714 109.75C256.714 92.7699 242.967 79.0046 226.009 79.0046C209.051 79.0046 195.303 92.7699 195.303 109.75C195.303 126.73 209.051 140.496 226.009 140.496Z" fill="#F3F3F3"/>
<path d="M247.905 113.889C248.86 114.154 249.26 115.714 248.582 117.207C240.145 136.736 211.906 136.736 203.469 117.207C202.791 115.721 203.212 114.161 204.147 113.896C205.109 113.625 206.18 114.507 206.742 115.742C213.946 132.427 238.065 132.427 245.268 115.742C245.804 114.507 246.902 113.618 247.864 113.896L247.905 113.889Z" fill="#374952"/>
<path d="M217.409 106.703C217.409 107.267 217.186 107.807 216.788 108.205C216.39 108.603 215.85 108.827 215.288 108.827C214.727 108.825 214.189 108.601 213.792 108.203C213.396 107.805 213.174 107.265 213.174 106.703V98.9337C213.174 98.3723 213.396 97.8338 213.793 97.4368C214.189 97.0397 214.727 96.8167 215.288 96.8167C215.849 96.8166 216.388 97.0395 216.785 97.4363C217.183 97.8332 217.407 98.3716 217.409 98.9337V106.703Z" fill="#374952"/>
<path d="M236.493 106.703C236.493 106.982 236.439 107.258 236.334 107.516C236.228 107.773 236.072 108.007 235.876 108.205C235.679 108.402 235.446 108.559 235.189 108.665C234.932 108.772 234.656 108.827 234.378 108.827C233.816 108.827 233.276 108.603 232.878 108.205C232.481 107.807 232.257 107.267 232.257 106.703V98.9337C232.259 98.3716 232.483 97.8332 232.881 97.4363C233.278 97.0395 233.817 96.8166 234.378 96.8167C234.939 96.8167 235.477 97.0397 235.873 97.4368C236.27 97.8338 236.493 98.3723 236.493 98.9337V106.703Z" fill="#374952"/>
<path d="M197.756 157.473C201.403 164.764 202.009 173.206 199.441 180.944C196.873 188.682 191.34 195.082 184.06 198.736C176.781 202.385 168.352 202.991 160.627 200.419C152.902 197.848 146.513 192.31 142.864 185.022C141.057 181.413 139.977 177.482 139.687 173.454C139.397 169.427 139.903 165.382 141.174 161.55C142.446 157.718 144.46 154.174 147.1 151.122C149.74 148.069 152.954 145.567 156.56 143.759C163.84 140.11 172.269 139.505 179.994 142.076C187.719 144.648 194.108 150.186 197.756 157.473Z" fill="#FFCC18"/>
<path d="M191.718 165.141C192.694 164.951 193.751 166.165 193.826 167.794C195.025 189.04 169.775 201.722 153.497 188.028C152.25 186.983 151.905 185.416 152.636 184.751C153.375 184.072 154.751 184.378 155.788 185.24C169.687 196.924 191.251 186.101 190.227 167.957C190.159 166.6 190.742 165.324 191.718 165.141Z" fill="#374952"/>
<path d="M161.284 172.347C161.408 172.596 161.483 172.866 161.503 173.144C161.523 173.421 161.489 173.7 161.401 173.964C161.314 174.228 161.175 174.472 160.993 174.683C160.812 174.893 160.59 175.065 160.342 175.19C159.839 175.443 159.257 175.485 158.724 175.308C158.19 175.131 157.748 174.75 157.495 174.247L154.033 167.326C153.908 167.077 153.834 166.805 153.814 166.528C153.794 166.25 153.83 165.971 153.918 165.707C154.006 165.443 154.145 165.199 154.328 164.989C154.51 164.778 154.732 164.607 154.981 164.482C155.23 164.358 155.5 164.283 155.777 164.263C156.054 164.242 156.333 164.277 156.596 164.365C156.86 164.452 157.104 164.591 157.314 164.773C157.524 164.955 157.696 165.177 157.821 165.426L161.284 172.347Z" fill="#374952"/>
<path d="M178.327 163.797C178.452 164.046 178.526 164.317 178.546 164.595C178.565 164.873 178.53 165.152 178.442 165.416C178.354 165.68 178.215 165.924 178.032 166.134C177.85 166.344 177.627 166.516 177.379 166.64C177.13 166.765 176.86 166.84 176.583 166.86C176.306 166.88 176.027 166.846 175.764 166.758C175.5 166.67 175.256 166.532 175.046 166.35C174.836 166.168 174.664 165.946 174.539 165.697L171.076 158.776C170.951 158.527 170.877 158.257 170.857 157.979C170.836 157.702 170.871 157.423 170.959 157.159C171.046 156.895 171.185 156.651 171.366 156.44C171.548 156.23 171.77 156.057 172.018 155.933C172.52 155.68 173.102 155.638 173.636 155.815C174.17 155.991 174.612 156.373 174.864 156.876L178.327 163.797Z" fill="#374952"/>
</svg>
