<svg width="187" height="186" viewBox="0 0 187 186" fill="none" xmlns="http://www.w3.org/2000/svg">
<path d="M125.082 26C112.837 26 101.491 31.146 93.4 40.229C85.309 31.146 73.963 26 61.718 26C38.158 26 19 45.282 19 68.966C19 110.01 88.719 157.285 91.664 159.269C92.191 159.61 92.811 159.796 93.4 159.796C93.989 159.796 94.609 159.61 95.136 159.269C98.081 157.285 167.8 110.01 167.8 68.966C167.8 45.282 148.642 26 125.082 26ZM59.3 75.6C59.3 70.485 63.485 66.3 68.6 66.3C73.715 66.3 77.9 70.485 77.9 75.6C77.9 80.715 73.715 84.9 68.6 84.9C63.485 84.9 59.3 80.715 59.3 75.6ZM123.346 102.725C113.426 111.56 103.413 115.962 93.4 115.962C83.387 115.962 73.374 111.56 63.454 102.725C62.152 101.578 62.059 99.625 63.175 98.354C64.322 97.052 66.275 96.959 67.546 98.075C84.937 113.544 101.863 113.544 119.254 98.075C120.525 96.959 122.478 97.052 123.625 98.354C124.741 99.625 124.648 101.578 123.346 102.725ZM118.2 84.9C113.085 84.9 108.9 80.715 108.9 75.6C108.9 70.485 113.085 66.3 118.2 66.3C123.315 66.3 127.5 70.485 127.5 75.6C127.5 80.715 123.315 84.9 118.2 84.9Z" fill="#FFB4C6"/>
</svg>
