<svg width="20" height="20" viewBox="0 0 20 20" fill="none" xmlns="http://www.w3.org/2000/svg">
<path d="M17.8131 4.43985C14.9331 -0.00014677 9.05306 -1.32015 4.49306 1.43985C0.0530557 4.19985 -1.38694 10.1999 1.49306 14.6399L1.73306 14.9999L0.773056 18.5999L4.37306 17.6399L4.73306 17.8799C6.29306 18.7199 7.97306 19.1999 9.65306 19.1999C11.4531 19.1999 13.2531 18.7199 14.8131 17.7599C19.2531 14.8799 20.5731 8.99985 17.8131 4.43985ZM15.2931 13.6799C14.8131 14.3999 14.2131 14.8799 13.3731 14.9999C12.8931 14.9999 12.2931 15.2399 9.89306 14.2799C7.85306 13.3199 6.17306 11.7599 4.97306 9.95985C4.25306 9.11985 3.89306 8.03985 3.77306 6.95985C3.77306 5.99985 4.13306 5.15985 4.73306 4.55985C4.97306 4.31985 5.21306 4.19985 5.45306 4.19985H6.05306C6.29306 4.19985 6.53306 4.19985 6.65306 4.67985C6.89306 5.27985 7.49306 6.71985 7.49306 6.83985C7.61306 6.95985 7.61306 7.19985 7.49306 7.31985C7.61306 7.55985 7.49306 7.79985 7.37306 7.91985C7.25306 8.03985 7.13306 8.27985 7.01306 8.39985C6.77306 8.51985 6.65306 8.75985 6.77306 8.99985C7.25306 9.71985 7.85306 10.4399 8.45306 11.0399C9.17306 11.6399 9.89306 12.1199 10.7331 12.4799C10.9731 12.5999 11.2131 12.5999 11.3331 12.3599C11.4531 12.1199 12.0531 11.5199 12.2931 11.2799C12.5331 11.0399 12.6531 11.0399 12.8931 11.1599L14.8131 12.1199C15.0531 12.2399 15.2931 12.3599 15.4131 12.4799C15.5331 12.8399 15.5331 13.3199 15.2931 13.6799Z" fill="white"/>
</svg>
