<svg version="1.2" xmlns="http://www.w3.org/2000/svg" viewBox="0 0 915 689" width="915" height="689"><style>.a{fill:#fff}.b{fill:#ddecff}.c{mix-blend-mode:multiply;fill:#ddecff}.d{fill:#60a8ff}.e{fill:#223a7a}.f{fill:#1c83ff}.g{fill:#ff9d8c}.h{fill:#8593b6}.i{fill:#8e9bbb}.j{fill:#dee1eb}.k{fill:#818fb3}.l{fill:#6baeff}.m{fill:#43588e}.n{fill:#f6f7fa}.o{fill:#d9dee8}.p{fill:#596b9b}.q{fill:#7a89af}.r{mix-blend-mode:multiply;fill:#bdc4d7}.s{fill:#6f7fa9}.t{fill:#9ca6c3}.u{fill:#d2e6ff}.v{fill:#ff5f42}.w{fill:#67acff}</style><g style="display:none"><path class="a" d="m959 870h-1000v-1000h1000z"/><path class="b" d="m173.9 638.5c0 0-109.2-77.8-140.7-210.2-31.4-132.4 16.6-292.9 107.6-374.1 91.1-81.1 254.9-26.4 327.7 41.4 72.9 67.9 72.9 67.9 72.9 67.9 0 0 69.5 38.1 160.5 34.7 91.1-3.3 172.2 120.9 193.7 218.5 21.5 97.7-29.8 226.8-29.8 226.8z"/><path class="c" d="m124.3 658.4c0 0-76.2-41.4-96-137.4-19.9-96 66.2-183.7 74.5-231.7 8.2-48-10-107.6 66.2-153.9 76.1-46.4 211.8-29.8 263.1-41.4 51.3-11.6 110.9-91.1 213.6-72.9 102.6 18.3 201.9 72.9 206.8 192 5 119.2-33.1 122.5 5 187.1 38.1 64.5 53 109.2 34.8 175.4-18.2 66.2-56.3 84.4-56.3 84.4z"/><path class="c" d="m283.2 636.9c-4.7-5-74.2-144 3.2-271.5 77.4-127.4 271.6-112.5 348.9-62.9 77.4 49.7 115.3 114.2 123.2 182.1 7.8 67.9-44.3 173.8-44.3 173.8z"/></g><path class="d" d="m827.9 402.8h-89.2c-5.5 0-10-4.5-10-10v-44.6c0-5.5 4.5-10 10-10h89.2c5.5 0 10 4.5 10 10v44.6c0 5.5-4.5 10-10 10z"/><path class="d" d="m769.2 394.5h28.2l-14.1 33.5z"/><path class="e" d="m783 352.5h25.5v-3.8l12.5 7.3-12.5 7.2v-3.8h-25.5z"/><path class="a" d="m821 381.1h-25.5v3.7l-12.5-7.2 12.5-7.2v3.7h25.5z"/><path class="e" d="m772.8 393.8c-2.4 0.4-5.4-0.1-9-2.7-6-4.3-9.3-11.2-12.3-19-3.1-7.7-3.4-15.6-0.4-20.8 0.8-1.2 1.7-2.2 2.7-3l5.4 13-0.9 0.3c0 0 0 5.8 2 10.5 2 4.7 5.8 9 5.8 9l1.2-0.4z"/><path class="e" d="m775.3 381l2.8 7.3c0.6 1.5 0 3.2-1.4 4q-0.7 0.4-1.7 0.7l-5.5-13.2 1.7-0.6c1.6-0.6 3.4 0.2 4.1 1.8z"/><path class="e" d="m762.1 347.9l2.9 7.5c0.6 1.6-0.2 3.4-1.8 4.1l-1.9 0.8-5.5-13.2q1.2-0.7 2.2-1c1.6-0.6 3.4 0.2 4.1 1.8z"/><path class="f" d="m257.4 614.5v-148.9c0 0-1.6-40.2 19.5-51.8 21.1-11.6 110.1-5.3 110.1-5.3v206z"/><path class="g" d="m462.8 300.5l-5 43 3.7 7.9c0 0 2.1 14.4-22.3 9.9-24.4-4.6-44.3-32.7-44.3-32.7l10.3-7c0 0 0 0 2.1-3.8 2.1-3.7 7.5-48.8 7.5-48.8 3.7 11.2 48 31.5 48 31.5z"/><path class="a" d="m382.1 332.3l16.1-7c0 0 10.3 16.9 34.3 26.9 24 9.9 24.5 4.1 25.7 0 1.2-4.2-0.4-8.7-0.4-8.7l1.8-14.5 9.6 3.2 33.3 269.5-85.7 4.1z"/><path class="e" d="m509.9 348c19.1 9.4 28.2 17 35.2 54.7 7 37.6 6.2 119.4 7.9 123.8 2.4 6.6 49.6 47.1 49.6 47.1 0 0-7.4 40.9-8.7 40.9-1.2 0-108 0-108 0 0 0-0.8-83.1-2-119.6-1.3-36.4-6.2-89.3-11.6-120.8-5.4-31.4-11.2-44.8-11.2-44.8 0 0 29.2 9 48.8 18.7z"/><path class="h" d="m517.4 567.1c-0.6 0-1-0.4-1-1 0-2.9-0.6-45-1.1-85.6-0.5-40.7-1-82.7-1-85.7 0-0.6 0.5-1 1-1 0.6 0 1 0.4 1 1 0 3 0.5 45 1 85.6 0.5 40.7 1.1 82.7 1.1 85.7 0 0.6-0.5 1-1 1z"/><path class="e" d="m430.5 561.1c2 4.6-3.3 53.4-3.3 53.4h-125.8l0.8-57.5c0 0 126.2-0.4 128.3 4.1z"/><g style="mix-blend-mode:multiply"><path class="i" d="m418.2 273.9c11.3 11.3 44.6 26.6 44.6 26.6l-3 25.5c-5.5-2-12.5-5.3-17.6-9.4-15.8-12.8-21.6-29.8-24-42.7z"/></g><path class="g" d="m501.7 185c0 0 8.6 14.9 10.3 33.1 1.7 18.2 0 65-14.9 84.8-14.9 19.9-45.9 14.1-60 2.1-12.9-11-25.7-23.2-29-47.2-3.3-24 7.1-69.5 36.4-79 29.4-9.5 57.2 6.2 57.2 6.2z"/><path class="g" d="m539 588.5c0 0-1.5 0-3.7 0-0.5-0.1-1.1 0-1.7-0.1-2.1 0-4.7-0.1-7.4-0.2q-0.8 0-1.7 0c-2.6-0.1-4.8 0.2-6.9 0.1h-0.1c-0.4 0-1.1 0.1-1.6 0.1-0.2 0-0.5 0-0.6 0-1.2-0.2-1.5-0.5-2.8-1.1-1.7-0.7-24.4-5.8-42.9-5.7-18.5 0.1-35.1 1.3-37.8-0.9-2.7-2.3-4.3-25.5 11.5-27.1l19.4 7.4c0 0 44.3-5.3 60.5 6.7 16.3 12 15.8 20.8 15.8 20.8z"/><path class="e" d="m517.5 588.3c-0.4 0-1.1 0.1-1.6 0.1-0.4-0.7-1.2-1.8-1.7-2.3-5-5.1-17.1-8.4-21.4-9.5-0.4-0.1-0.7-0.5-0.6-0.9 0.1-0.4 0.5-0.6 0.9-0.5 6.4 1.5 19.9 5.5 23.8 11.9 0.1 0.2 0.4 0.8 0.6 1.2z"/><path class="e" d="m526.2 588.2q-0.8 0-1.7 0c-5.5-10-14.4-12.8-25.4-16.4l-0.7-0.2c-0.4-0.1-0.6-0.6-0.5-1 0.2-0.3 0.6-0.6 1-0.4l0.6 0.2c11.7 3.7 21.1 6.7 26.7 17.8z"/><path class="e" d="m535.3 588.4q-0.8 0-1.7 0c-3.3-6.9-14.3-18.6-28.8-21.3-0.4-0.1-0.7-0.5-0.6-0.9 0.1-0.4 0.5-0.6 0.9-0.6 14.9 2.8 27 15 30.2 22.8z"/><path class="e" d="m395.9 247.3c0 0-9.3-25.7-7.4-51.3 1.8-25.7 17.6-48.6 50.5-50.3 32.9-1.7 50.2 12.2 50.2 12.2 0 0 14.3-5.4 18.2-1.2 4 4.1-3.3 11.1-3.3 11.1 0 0 18.9-4.5 28.4 2.9 8.5 6.7 8.5 22.6-8.9 32.5-17.4 9.9-38.1 2.9-55.5-2.3-17.3-5.1-28.9-3.3-28.9-3.3 0 0 0.8 11-5.6 23.2-6.4 12.2-15.5 16.6-15.5 16.6z"/><g style="mix-blend-mode:multiply"><path class="i" d="m486.2 243.8c-0.5 5.8-1.8 11.6-2.2 17.5-0.2 2.4-0.3 5.1 1.9 6.6 1.5 1.2 3.5 1.7 5 2.9 1.4 1 2.7 2.6 2.5 4.4-0.2 1.6-1.5 2.6-2.9 3.2-2.2 1.1-3.8 1.2-6.3 1.1-2.4-0.1-5.5-0.5-7.5-1.8-0.7-0.4-0.4-1.4 0.3-1.4 1.3 0 2.6 0.4 3.9 0.5q1.8 0.1 3.6 0.2c1.8 0.1 4.4 0.4 5.9-0.6 4-2.7-3.8-6-5.5-7.2-3.4-2.6-2.7-7-2.4-10.8 0.5-4.9 0.4-10.2 2.3-14.8 0.3-0.7 1.5-0.7 1.4 0.2z"/></g><path class="e" d="m501.7 257.3c-0.6 3.5-3.1 6-5.6 5.5-2.6-0.4-4.1-3.6-3.5-7.1 0.6-3.5 3.2-5.9 5.7-5.5 2.5 0.5 4 3.6 3.4 7.1z"/><path class="e" d="m470.1 254.6c-0.6 3.7-3.3 6.5-6 6-2.7-0.4-4.4-3.7-3.9-7.5 0.6-3.8 3.3-6.5 6-6.1 2.7 0.4 4.4 3.8 3.9 7.6z"/><path class="e" d="m492.9 241.3c-0.1-0.8 0.3-1.4 1-1.9 0.8-0.6 2-1 3-1.1 1.2-0.2 2.3-0.3 3.5-0.3 1.2 0 2.4 0.1 3.6 0.4 0.6 0.2 1.3 0.4 1.8 0.8q0.2 0.1 0.4 0.3 0.3 0.2 0.5 0.5 0.1 0.1 0.2 0.3-0.1-0.1-0.2-0.3 0.1 0.2 0.3 0.4 0.2 0.3 0.4 0.8c0.3 1.1-0.4 2.4-1.5 2.6-0.1 0-0.8 0.1-0.8 0.1q0.2 0 0.4-0.1-0.3 0.1-0.6 0.1c-0.4 0-0.8-0.1-1.2-0.1-0.4-0.1-0.8-0.3-1.2-0.4q-0.4-0.1-0.8-0.1-0.1-0.1-0.3-0.1c-0.4-0.1 0.5 0.1 0.2 0q-0.7-0.1-1.4-0.1c-2-0.2-3.9 0.2-5.9-0.1-0.7-0.2-1.3-1-1.4-1.7z"/><path class="e" d="m473.1 239.8c-0.4 0.8-1.4 1.5-2.3 1.1q-0.3-0.1-0.7-0.2-0.1 0-0.3-0.1c0.2 0.1 0.3 0 0 0q-0.8 0-1.6 0-1.9-0.1-3.8 0-2.1 0-4.1 0.2-0.5 0-1 0.1-0.2 0-0.3 0c0.6 0 0 0-0.1 0-0.1 0.1-1 0.2-0.7 0.1 0.4 0-0.2 0.1-0.2 0.1-0.6 0.1-1 0.1-1.5 0q0.5 0 1 0c-0.7 0.2-1.3 0.4-2 0-0.6-0.3-0.9-0.9-0.9-1.5 0-0.7 0.3-1.3 0.9-1.7q-0.1 0.1-0.1 0.2 0.2-0.3 0.4-0.5c0.2-0.3 0.4-0.4 0.7-0.6 1.8-1 3.7-1.5 5.7-1.8 2-0.2 4 0 5.8 0.4 0.9 0.3 1.7 0.5 2.5 0.9q0.3 0.2 0.6 0.3c-0.5-0.2 0.1 0.1 0.4 0.2q0.4 0.2 0.8 0.4c0.8 0.5 1.1 1.5 0.8 2.4z"/><path class="e" d="m480.7 300.5c-0.9 0.2-1.8 0.3-2.8 0.2-9.6-0.5-15-11.1-10.4-13.7 4.1-2.3 20.5-0.8 23.9-0.5-3.9 1.8-7.4 4.6-9.3 8.4-0.9 1.8-1.3 3.7-1.4 5.6z"/><path class="j" d="m413.7 271.1c0 0 0.8 3.7 7.5 10.5 6.6 6.9 20.9 13.1 20.9 13.1l-1.1 4.8c0 0-13.8-5.5-23.3-12.9-9.6-7.5-11.2-13.9-11.2-13.9z"/><path class="e" d="m443.7 291.1c7.7-0.4 12 5.7 12.5 9.6 0.5 3.9-3.2 8.3-11.8 4.5-10.7-4.8-8.3-13.8-0.7-14.1z"/><path class="j" d="m395.3 226c0 0 2.3-29.8 23.4-53.2 21.1-23.4 46.1-25.4 46.1-25.4 0 0 4.1-1.7 13.3 1.4 9.7 3.3 9.9 7.7 9.9 7.7 0 0-25.9-1.9-56.3 28.9-15.9 16.2-19.2 40-19.2 40z"/><path class="a" d="m404.2 276.9c-15.3 1.2-26.7-10.8-25.9-26.5 0.9-15.7 12-31.3 31.9-27.9 24.4 4.1 28.3 51.7-6 54.4z"/><path class="k" d="m400.3 261.6c-5.3 0-9.7-2.7-12.3-7.3-2.7-5-2.5-11.1 0.6-15.6 0.3-0.4 0.7-0.5 1.1-0.2 0.3 0.2 0.4 0.7 0.2 1-2.8 4.1-3 9.6-0.5 14.1 2.3 4.2 6.4 6.7 11.3 6.5 4.5-0.1 8.4-2.2 10.8-5.9 2.8-4.2 3.5-9.9 1.7-14.7-1.8-4.7-6.7-7.9-11.2-7.3-0.4 0-0.8-0.2-0.8-0.7-0.1-0.4 0.2-0.7 0.6-0.8 5.2-0.7 10.7 2.9 12.8 8.3 1.9 5.2 1.2 11.5-1.8 16.1-2.8 4-7 6.3-12.1 6.5q-0.2 0-0.4 0z"/><path class="e" d="m416.4 418c7.6 42.1 12.4 129.1 12.4 129.1l27.7 9.9c0 0-5.8 2-10.4 11.6-5 10.3-4.9 17.4-4.9 17.4 0 0-30.6 1.6-62.9 0-32.2-1.7-72.4-12.9-81.5-19.1-9.1-6.2-24.4-15.3-24-37.2 0.4-21.9 10.4-140.3 31.5-164.3 21.1-24 81.5-38.9 81.5-38.9 0 0 21.9 43.1 30.6 91.5z"/><path class="h" d="m485.9 533.2q-0.2 0-0.4-0.1c-0.5-0.2-0.7-0.8-0.5-1.3 5.7-12.8 11.5-37.9 14.8-55.5l0.3-1.4c1-5.2 2.3-11.6-0.2-16-1.3-2.3-4.2-7.2-6.9-11.9-2.9-4.9-5.5-9.6-6.3-11-1.5-2.7 3.1-9.9 9.8-19.8 1.8-2.7 3.3-5 4.2-6.5 2.4-4.1 0.8-7.9-1-12.2l-0.6-1.5c-1.7-4.1-3.6-8.1-5.4-12.1q-1.1-2.4-2.2-4.8-1.5-3.2-2.9-6.5c-5.9-13.1-11.9-26.5-19.7-39.6-0.3-0.4-0.1-1.1 0.4-1.3 0.5-0.3 1.1-0.2 1.3 0.3 7.8 13.1 13.9 26.7 19.8 39.8q1.5 3.3 2.9 6.5 1.1 2.4 2.2 4.8c1.9 3.9 3.7 8 5.4 12.1l0.6 1.5c1.9 4.4 3.8 9 1 14-1 1.6-2.5 3.9-4.4 6.6-3.4 5.2-10.6 15.9-9.6 17.8 0.7 1.3 3.4 6 6.2 10.9 2.8 4.7 5.7 9.6 6.9 11.9 2.9 5.1 1.5 11.9 0.5 17.4l-0.3 1.4c-1.2 6.4-7.6 39.2-15 55.9-0.1 0.4-0.5 0.6-0.9 0.6z"/><path class="h" d="m427 536.7c-0.3 0-0.6-0.1-0.7-0.3-4.8-4.7-27.4-44-29.1-51.4-0.9-4 1.4-14.3 3.6-24.2 1.8-7.7 3.6-15.6 3.1-17.8-0.8-3.2-6.6-7.9-12.2-12.5-6.8-5.5-13.8-11.3-15.2-16.4-1.5-5.9-0.2-42.5 0.7-66.8 0.3-8.7 0.6-15.6 0.6-18.1 0-0.5 0.4-1 1-1q0 0 0 0c0.5 0 1 0.5 1 1 0 2.5-0.3 9.4-0.6 18.2-0.8 22.6-2.2 60.6-0.7 66.2 1.2 4.5 8.2 10.3 14.4 15.4 6.2 5 12 9.7 12.9 13.6 0.6 2.6-1.1 10-3 18.6-2.1 9.3-4.5 19.8-3.7 23.4 1.7 7.2 24 45.7 28.6 50.4 0.4 0.4 0.4 1 0 1.4q-0.3 0.3-0.7 0.3z"/><path class="h" d="m345.7 519.5q-0.1 0-0.2 0c-0.5-0.1-0.9-0.6-0.8-1.1 0.7-5.2 12.2-108.8 12.7-116.8 0-0.5 0.5-0.9 1.1-0.9 0.5 0.1 0.9 0.5 0.9 1.1-0.5 7.9-12 111.7-12.8 116.9 0 0.5-0.5 0.8-0.9 0.8z"/><path class="h" d="m428 547.7q-0.2 0-0.4-0.1c-2.5-1-13.8-4.8-28-9.6-28.7-9.7-68-23-75.5-26.9-0.5-0.2-0.7-0.8-0.4-1.3 0.2-0.5 0.8-0.7 1.3-0.4 7.3 3.8 48.2 17.6 75.2 26.7 14.3 4.8 25.6 8.6 28.2 9.6 0.5 0.2 0.7 0.8 0.5 1.3-0.1 0.4-0.5 0.7-0.9 0.7z"/><path class="h" d="m414.2 588.9c-25.3 0-74.3-4.5-111.5-17.7-0.5-0.2-0.8-0.8-0.6-1.3 0.2-0.5 0.7-0.8 1.3-0.6 47 16.6 112.8 19.5 125 16.7 0.5-0.1 1.1 0.3 1.2 0.8 0.1 0.5-0.2 1.1-0.8 1.2-2.6 0.6-7.7 0.9-14.6 0.9z"/><path class="l" d="m113.4 317c0.1-5.8 1-11.4 1-17.2-0.1-5.6-0.6-11.2-0.7-16.8-0.1-5.8 0.7-14 7.9-14.9 8.6-1 17.7 6.6 21.8 13.5 1.9 3.2 3.3 7.2 2.6 11-0.7 3.3-2.7 6.2-4.3 9.1-1.8 3.1-3 6.2 0 9 3.2 2.9 7.6 4.6 11 7.2 7.1 5.4 9.8 13.7 10.3 22.3 0.4 6.2 0 12.3 0.2 18.4 0.2 6.2 0.7 12.3 1.4 18.4q0 0.1 0.1 0.1c0.3 1.4 0.4 3.2 0.1 1.8-0.8-3-5.7-6.9-7.6-9.3-2.5-3.3-4.9-6.7-7.6-9.8-6.9-8-16.8-12.4-24.7-19.3-7.2-6.3-11.7-13.8-11.5-23.5z"/><path class="l" d="m191.8 446.4c-0.9 3-2.4 6.3-2.7 9.4-0.1 0.9-10.3 0.3-13.6-1.2-2.2-1-4.2-2.4-5.7-4.3-3.3-4-4.2-9.3-5.9-14.1-2.3-6.5-6.6-10.8-13.2-13-5.8-1.9-12.2-2.8-18.2-3-8.6-0.3-19.7 1.1-23.2-8.9-1.2-3.3-0.9-6.7-0.6-10.1 0.3-3.7 0-6.8-1.8-10.1-3.1-5.5-7.4-10.3-10.7-15.6-3.2-5.1-5.8-10.6-6.1-16.6-0.2-4.8 0.9-11.1 4.9-14.3 7.4-6.1 17.5 3.4 21.8 9 5.7 7.5 8 18.2 15.8 24.1 2.3 1.8 4.6 2.1 7.5 1.3 2.3-0.6 4.5-1.4 6.9-1.5 3.8 0 7.3 1.5 10.1 4 4.8 4.1 7.8 10.1 10.3 15.7 2.7 6 4.7 12.3 6.7 18.6 2.5 7.5 5.5 14.9 8 22.4 1.5 4.3 2.1 9.1 3.9 13.3q-0.2-1.5-0.4-2.8c-0.5-4.6-0.9-9.1-1.3-13.7-0.3-4.9-0.5-9.9-0.5-14.8 0-4-0.6-10.5 2.5-22.7 2-7.7 6.2-14.9 6-23.1-0.2-8.4-3.4-16.6-6.1-24.5-3.3-9.5-5.7-19.2-4.5-29.4 0.4-3.3 1.2-7.3 3.8-9.6 2.7-2.4 6.3-1.4 9.1 0.1 10.8 6.1 11.6 19.2 11.1 30.2-0.3 7.6-2.6 14.5-4.1 21.8-0.3 1.5-2.1 9.8-0.1 10.3 1.2 0.3 2.5-1.9 2.9-2.7 0.7-1.6 1.2-3.2 1.7-4.7 1.4-4.1 2.7-8.2 4.6-12 1-2.2 2.7-5.7 5.5-6 3.5-0.5 5.1 4 5.4 6.7 0.4 5.8-1.3 11.6-1.5 17.3-0.3 7.8 0.1 15.8-2.8 23.2-2.8 7.3-7.5 13.6-11.7 20.1-3.1 4.8-5.6 9.6-7.8 14.8-2.2 5.4-4.3 10.8-6 16.4z"/><path class="l" d="m246.9 447.8c-0.4 4.8-2.2 9.2-5.5 12.8-3.5 3.8-8.5 5-12.8 7.7-2.2 1.4-4.5 3.4-5 6.1-0.6 2.9 1 5.5 2.4 7.8 2.6 4.4 5 8.5 5.6 13.6 0.4 3.9 0 8.2-2.9 11.1-3.9 3.7-10.1 4.2-14.8 6.6-10.3 5.3-17.9 13.8-24.1 23.4-0.5 0.8-2.1 0.3-1.6-0.7q0.2-0.5 0.4-1c0.9-6.5 2.6-12.9 4.2-19.3 1.6-6.4 2.6-13 3.8-19.4 1.9-9.7 3.8-19.7 7.8-28.8 1.5-3.3 3.5-6.5 6.4-8.8 3.2-2.5 7-3.6 10.9-4.8 6-1.8 10.2-5.2 12.5-11.2 2-5.3 3.3-11 3.9-16.6 0.4-3.2 0.2-6.4 0.5-9.6 0.2-1.9 0.2-5 2.2-6.1 0.3-0.2 0.9-0.1 1 0.3 2.8 5.2 2.6 11.5 3.5 17.3 1 6.3 2.1 13.2 1.6 19.6z"/><path class="l" d="m180.3 495c5.7 12.7 8.2 25.9 8.4 39.8 0 0.5-1 1-1.3 0.7-0.5 0.4-0.2 1.3-0.3 0.4-0.5-9.4-7.2-19.1-14.4-24.8-7-5.6-15.3-9.1-23.5-12.5-3.8-1.6-7.6-3.3-11.3-5-2.9-1.4-5.9-2.8-8.2-5.1-4.7-4.6-2.6-11.9 2.2-15.7 4-3.2 8.8-3.4 13.4-4.9-3.7-5-8.8-8.7-13.2-13-3-2.8-7.4-7.3-6.3-11.9 1.9-7.8 11.2-2.6 15.2 0.1 7.4 4.9 14.1 11 19.5 18.1 8 10.2 14.6 22 19.8 33.8z"/><path class="m" d="m142.7 331.5c7.3 13.3 15.7 26 21.1 40.4 3 7.9 6.6 15.6 9.7 23.4 3.2 7.9 5.9 15.9 8 24.1 4.3 15.9 7.6 32.2 9.1 48.6 0.8 8.4 1.1 16.8 0.9 25.2-0.3 6.6-1 13.2-1.6 19.7-1 11.9-1.3 23.9 4 34.9 0.5 1-0.7 2.1-1.6 1.2-4.5-4.1-5.4-11-5.9-16.8-0.6-7-0.1-14 0.5-20.9 0.7-6.6 1.4-13.3 1.6-19.9 0.2-8.6-0.2-17.2-1-25.7-1.7-16.7-5.1-33.4-9.7-49.6-2.3-8.3-5.2-16.4-8.5-24.4-3.2-7.7-6.3-15.3-9.3-23.1-2.4-6.2-5.6-12.1-8.8-18-3.4-6.1-6.6-12.2-9.6-18.5-0.3-0.7 0.7-1.3 1.1-0.6z"/><path class="m" d="m187 449.3c-0.7-9.8 1-20 4.4-29.1 1.7-4.8 3.8-9.4 5.3-14.2 0.7-2.3 1.4-4.6 1.8-6.9 0.5-2.4 0.4-5 1.1-7.3 0.1-0.5 0.8-0.5 0.9 0 1 4.1-0.9 9.4-2.2 13.2-1.6 4.7-3.6 9.2-5.3 13.8-3.5 10-4.4 20-5.3 30.5 0 0.4-0.6 0.4-0.7 0z"/><path class="m" d="m128.3 388.9c6.3 10.7 19.4 8.4 29.3 12.9 12.4 5.6 16 20 18.5 32 0 0.1-0.1 0.1-0.1 0.1-2.1-6.9-4.6-14.1-8.4-20.2-3.4-5.7-8.2-10-14.7-11.6-9.1-2.2-21.5-2.8-25.7-12.8-0.2-0.6 0.8-1 1.1-0.4z"/><path class="m" d="m181.4 447.5c0.6 0.6 1.1 1.2 1.7 1.7q0.4 0.4 0.9 0.8c0.3 0.3 0.6 0.5 0.8 0.8 0.1 0.2 0 0.4-0.2 0.4-0.4 0-0.8-0.3-1.1-0.6-0.4-0.3-0.6-0.6-0.9-0.9-0.5-0.6-0.9-1.3-1.4-2-0.1-0.1 0.1-0.3 0.2-0.2z"/><path class="m" d="m155.9 478.6c4 2.8 7.5 6.2 10.9 9.7 3.4 3.4 6.4 6.6 8.9 10.7 4.8 7.8 10.8 15.9 11.8 25.3 0 0.5-0.6 0.5-0.7 0.1-1.8-4.4-3.3-8.9-5.6-13.2-2.1-3.9-4.4-7.7-6.9-11.3-5.3-7.6-11.9-14.6-19-20.4-0.5-0.4 0.1-1.2 0.6-0.9z"/><path class="m" d="m212.9 469.3c-3.1 2.9-2.8 9.1-2.6 13 0.1 6.1 0.5 11.6-2.2 17.2-2.6 5.4-6.5 9.9-9.7 14.8-1.8 2.8-3.2 5.8-4.2 9-0.9 2.8-1.4 5.9-2.6 8.7-0.2 0.3-0.7 0.1-0.7-0.2-0.1-6 3-12.4 6.1-17.4 3.3-5.3 7.5-10.1 10.2-15.9 2.9-6.3 1.2-12.6 1.4-19.3 0-3.4 0.1-8.9 3.6-10.8 0.5-0.3 1.2 0.4 0.7 0.9z"/><path class="a" d="m229.4 532l-6.5 48.6c-1.5 10.9-10.8 19-21.8 19h-11.4-1.1-11.4c-11 0-20.3-8.1-21.8-19l-6.5-48.6c0 0 26.4 0.2 40.3 0.4 13.8-0.2 40.2-0.4 40.2-0.4z"/><path class="n" d="m859.4 443.2l-79.1 156.7-230.6 1.7 71.1-160.6z"/><path class="o" d="m396.6 600.6v-12.6h149.3l68.7-150.6h238.8l6 5.8h-233.3l-71.3 157.3c0 0-158.2-0.3-158.2 0.1z"/><path class="o" d="m739.6 529.7c-2.6 7.8-16.7 13.8-31.6 13.5-14.8-0.4-24.7-7-22.1-14.9 2.6-7.8 16.7-13.8 31.6-13.4 14.8 0.3 24.7 7 22.1 14.8z"/><path class="a" d="m554.8 601.5q-0.3 0-0.5-0.1c-0.5-0.3-0.7-0.9-0.5-1.4l71.7-157.8h233.9c0.5 0 1 0.5 1 1 0 0.6-0.5 1-1 1h-232.6l-71.1 156.7c-0.2 0.3-0.6 0.6-0.9 0.6z"/><path class="p" d="m386.2 673.3h-274.3v-60.8h274.3z"/><path class="q" d="m878.2 673.3h-493.6v-60.8h493.6z"/><path class="r" d="m878.2 612.5v11.1h-492-1.6-272.7v-11.1h272.7 1.6z"/><path class="s" d="m398.2 615.4h-299.6v-14.9h299.6z"/><path class="t" d="m890.2 615.4h-493.6v-14.9h493.6z"/><path class="a" d="m316.9 281.3h-96.8c-6 0-10.9-4.8-10.9-10.8v-48.4c0-6 4.9-10.8 10.9-10.8h96.8c6 0 10.9 4.8 10.9 10.8v48.4c0 6-4.9 10.8-10.9 10.8z"/><path class="a" d="m319 261.6v-30.7l36.4 15.4z"/><path class="e" d="m252.2 246.3c0 3.7-3 6.7-6.7 6.7-3.7 0-6.7-3-6.7-6.7 0-3.7 3-6.7 6.7-6.7 3.7 0 6.7 3 6.7 6.7z"/><path class="e" d="m275.2 246.3c0 3.7-3 6.7-6.7 6.7-3.7 0-6.7-3-6.7-6.7 0-3.7 3-6.7 6.7-6.7 3.7 0 6.7 3 6.7 6.7z"/><path class="e" d="m298.2 246.3c0 3.7-3 6.7-6.7 6.7-3.7 0-6.7-3-6.7-6.7 0-3.7 3-6.7 6.7-6.7 3.7 0 6.7 3 6.7 6.7z"/><path class="d" d="m836 88.5v106.1c0 14.4-11.6 26-26 26h-163.9c-7.8 12.4-22.7 30.3-48.5 42.2 8-18.3 9.4-32.6 8.9-42.2h-20.1c-14.3 0-26-11.6-26-26v-106.1c0-14.3 11.7-26 26-26h223.6c14.4 0 26 11.7 26 26z"/><path class="a" d="m714.6 113.1h-110.9c-3 0-5.5-2.5-5.5-5.5 0-3.1 2.5-5.6 5.5-5.6h110.9c3.1 0 5.5 2.5 5.5 5.6 0 3-2.4 5.5-5.5 5.5z"/><path class="u" d="m794.1 145.2h-192.5c-1.9 0-3.4-1.5-3.4-3.4 0-1.8 1.5-3.3 3.4-3.3h192.5c1.9 0 3.4 1.5 3.4 3.3 0 1.9-1.5 3.4-3.4 3.4z"/><path class="u" d="m794.1 164h-192.5c-1.9 0-3.4-1.5-3.4-3.4 0-1.9 1.5-3.4 3.4-3.4h192.5c1.9 0 3.4 1.5 3.4 3.4 0 1.9-1.5 3.4-3.4 3.4z"/><path class="u" d="m752.1 184h-150.5c-1.9 0-3.4-1.5-3.4-3.4 0-1.9 1.5-3.4 3.4-3.4h150.5c1.9 0 3.4 1.5 3.4 3.4 0 1.9-1.5 3.4-3.4 3.4z"/><path class="a" d="m792.6 113.1h-52.9c-3 0-5.5-2.5-5.5-5.5 0-3.1 2.5-5.6 5.5-5.6h52.9c3.1 0 5.5 2.5 5.5 5.6 0 3-2.4 5.5-5.5 5.5z"/><path class="a" d="m659.3 357h-60.1c-2.2 0-4-1.8-4-4v-41c0-2.2 1.8-4 4-4h60.1c2.2 0 4 1.8 4 4v41c0 2.2-1.8 4-4 4z"/><path class="s" d="m629.7 339.8c-0.4 0-0.7-0.1-1-0.3l-32.7-27c-0.6-0.6-0.7-1.5-0.2-2.1 0.6-0.7 1.5-0.8 2.1-0.2l31.7 26.2 30.9-26.9c0.7-0.6 1.6-0.5 2.2 0.1 0.5 0.6 0.4 1.6-0.2 2.1l-31.8 27.7c-0.3 0.3-0.7 0.4-1 0.4z"/><path class="s" d="m597 355.9c-0.4 0-0.8-0.1-1.1-0.4-0.6-0.6-0.6-1.5 0-2.1l22.9-24.1c0.5-0.6 1.5-0.6 2.1 0 0.6 0.5 0.6 1.5 0 2.1l-22.8 24c-0.3 0.3-0.7 0.5-1.1 0.5z"/><path class="s" d="m661.5 355c-0.4 0-0.7-0.1-1-0.4l-22.8-22.9c-0.6-0.6-0.6-1.5 0-2.1 0.6-0.6 1.5-0.6 2.1 0l22.8 22.8c0.6 0.6 0.6 1.6 0 2.2-0.3 0.3-0.7 0.4-1.1 0.4z"/><path class="v" d="m686.5 306.5c0 11-9 20-20.1 20-11.1 0-20.1-9-20.1-20 0-11.1 9-20.1 20.1-20.1 11.1 0 20.1 9 20.1 20.1z"/><path class="a" d="m661.6 306.5l-0.1-0.6q0.9 0.4 1.6 1.1 0.7 0.6 1 1.4 0.4 0.8 0.4 1.6 0 1.4-0.8 2.5-0.7 1.1-2 1.8-1.3 0.7-2.8 0.7-1.6 0-2.9-0.7-1.2-0.7-2-1.8-0.7-1.1-0.7-2.5 0-1.1 0.4-1.9 0.5-0.8 1.2-1.4 0.7-0.5 1.4-0.9l-0.2 0.7q-0.6-0.3-1.2-0.7-0.5-0.4-0.9-1.1-0.3-0.7-0.3-1.7 0-1.3 0.7-2.4 0.7-1.1 1.8-1.8 1.2-0.6 2.7-0.6 1.4 0 2.6 0.6 1.2 0.7 1.9 1.8 0.7 1.1 0.7 2.4 0 1.1-0.4 1.8-0.5 0.6-1 1.1-0.6 0.4-1.1 0.6zm-5-3.4q0 0.6 0.2 1.1 0.4 0.5 0.9 0.8 0.5 0.3 1.2 0.3 0.7 0 1.2-0.3 0.5-0.3 0.8-0.8 0.3-0.5 0.3-1.1 0-1-0.7-1.6-0.6-0.7-1.6-0.7-1 0-1.7 0.7-0.6 0.6-0.6 1.6zm2.3 9.3q1.1 0 1.9-0.7 0.8-0.8 0.8-1.8 0-0.7-0.3-1.2-0.4-0.6-1-0.9-0.7-0.3-1.4-0.3-0.8 0-1.4 0.3-0.6 0.3-1 0.9-0.4 0.5-0.4 1.2 0 1 0.8 1.8 0.8 0.7 2 0.7zm12.3 2.8q-0.8 0-1.9-0.2-1-0.3-1.6-0.8-0.3-0.3-0.5-0.7-0.2-0.4-0.2-0.8 0-0.4 0.4-0.8 0.3-0.4 1-0.4 0.4 0 1 0.5 0.4 0.2 0.9 0.4 0.4 0.2 0.9 0.2 1.2 0 2-0.4 0.8-0.4 1.3-1.2 0.5-0.7 0.5-1.7 0-0.9-0.5-1.6-0.4-0.6-1.1-1-0.6-0.3-1.4-0.3-0.8 0-1.3 0.2-0.6 0.2-1 0.5-0.5 0.2-1 0.2-0.7 0-1.1-0.3-0.4-0.4-0.5-0.8-0.1-0.5-0.1-0.9l0.8-5.8q0.1-0.5 0.5-0.8 0.4-0.4 0.9-0.4h7q0.5 0 0.9 0.4 0.4 0.4 0.4 1 0 0.5-0.4 0.9-0.4 0.4-0.9 0.4h-6.2l0.2-0.3-0.6 4.9-0.3-0.9q0.1-0.2 0.6-0.5 0.5-0.2 1.1-0.3 0.6-0.2 1.2-0.2 1.6 0 2.9 0.8 1.3 0.7 2 2 0.7 1.2 0.7 2.8 0 1.8-0.8 3.1-0.8 1.4-2.3 2.1-1.4 0.7-3.5 0.7z"/><path class="e" d="m868 299.1h-117.3c-4.4 0-8-3.6-8-8v-18.4c0-4.4 3.6-8 8-8h117.3c4.4 0 8 3.6 8 8v18.4c0 4.4-3.6 8-8 8z"/><path class="a" d="m759.2 290.9q-0.8 0-1.3-0.6-0.4-0.5-0.4-1.4l0.5-4.4q0.1-0.2 0-0.2-0.2-0.1-0.3 0l-3.7 2.7q-0.7 0.5-1.4 0.3-0.7-0.1-1.2-0.8-0.5-0.9-0.2-1.6 0.3-0.7 1.1-1l4.1-1.8q0.2-0.1 0.2-0.2 0-0.1-0.2-0.2l-4.1-1.8q-0.8-0.4-1-1.1-0.3-0.7 0.1-1.5 0.5-0.7 1.2-0.8 0.7-0.2 1.4 0.3l3.7 2.7q0.1 0.1 0.3 0 0.1 0 0-0.2l-0.5-4.4q0-0.9 0.5-1.4 0.5-0.6 1.3-0.6 0.8 0 1.3 0.6 0.5 0.5 0.4 1.4l-0.5 4.4q-0.1 0.2 0 0.2 0.2 0.1 0.3 0l3.7-2.7q0.7-0.5 1.4-0.3 0.8 0.1 1.2 0.8 0.5 0.9 0.2 1.6-0.3 0.7-1.1 1l-4.1 1.8q-0.1 0.1-0.1 0.2 0 0.1 0.1 0.2l4.1 1.8q0.8 0.4 1.1 1.1 0.2 0.7-0.2 1.5-0.4 0.7-1.2 0.8-0.7 0.2-1.4-0.3l-3.7-2.7q-0.1-0.1-0.3 0-0.1 0 0 0.2l0.5 4.4q0.1 0.9-0.4 1.4-0.6 0.6-1.4 0.6z"/><path class="a" d="m783.4 290.9q-0.7 0-1.2-0.6-0.5-0.5-0.4-1.4l0.5-4.4q0-0.2-0.1-0.2-0.1-0.1-0.3 0l-3.6 2.7q-0.7 0.5-1.4 0.3-0.8-0.1-1.2-0.8-0.5-0.9-0.2-1.6 0.3-0.7 1-1l4.1-1.8q0.2-0.1 0.2-0.2 0-0.1-0.2-0.2l-4.1-1.8q-0.8-0.4-1-1.1-0.2-0.7 0.2-1.5 0.4-0.7 1.2-0.8 0.7-0.2 1.4 0.3l3.6 2.7q0.2 0.1 0.3 0 0.1 0 0.1-0.2l-0.5-4.4q-0.1-0.9 0.4-1.4 0.5-0.6 1.4-0.6 0.7 0 1.3 0.6 0.5 0.5 0.3 1.4l-0.5 4.4q0 0.2 0.1 0.2 0.1 0.1 0.3 0l3.6-2.7q0.7-0.5 1.5-0.3 0.7 0.1 1.1 0.8 0.5 0.9 0.2 1.6-0.3 0.7-1 1l-4.1 1.8q-0.2 0.1-0.2 0.2 0 0.1 0.2 0.2l4.1 1.8q0.8 0.4 1 1.1 0.3 0.7-0.2 1.5-0.4 0.7-1.1 0.8-0.8 0.2-1.5-0.3l-3.6-2.7q-0.2-0.1-0.3 0-0.1 0-0.1 0.2l0.5 4.4q0.2 0.9-0.4 1.4-0.5 0.6-1.4 0.6z"/><path class="a" d="m807.7 290.9q-0.8 0-1.3-0.6-0.5-0.5-0.4-1.4l0.5-4.4q0.1-0.2 0-0.2-0.2-0.1-0.3 0l-3.7 2.7q-0.7 0.5-1.4 0.3-0.7-0.1-1.2-0.8-0.5-0.9-0.2-1.6 0.3-0.7 1.1-1l4.1-1.8q0.2-0.1 0.2-0.2 0-0.1-0.2-0.2l-4.1-1.8q-0.8-0.4-1-1.1-0.3-0.7 0.1-1.5 0.5-0.7 1.2-0.8 0.7-0.2 1.4 0.3l3.7 2.7q0.1 0.1 0.3 0 0.1 0 0-0.2l-0.5-4.4q0-0.9 0.5-1.4 0.5-0.6 1.3-0.6 0.8 0 1.3 0.6 0.5 0.5 0.4 1.4l-0.5 4.4q-0.1 0.2 0 0.2 0.2 0.1 0.3 0l3.7-2.7q0.7-0.5 1.4-0.3 0.8 0.1 1.2 0.8 0.5 0.9 0.2 1.6-0.3 0.7-1.1 1l-4.1 1.8q-0.1 0.1-0.1 0.2 0 0.1 0.1 0.2l4.1 1.8q0.8 0.4 1.1 1.1 0.2 0.7-0.2 1.5-0.4 0.7-1.2 0.8-0.7 0.2-1.4-0.3l-3.7-2.7q-0.1-0.1-0.3 0-0.1 0 0 0.2l0.5 4.4q0.1 0.9-0.4 1.4-0.6 0.6-1.4 0.6z"/><path class="a" d="m831.9 290.9q-0.7 0-1.2-0.6-0.5-0.5-0.4-1.4l0.5-4.4q0-0.2-0.1-0.2-0.1-0.1-0.3 0l-3.6 2.7q-0.7 0.5-1.4 0.3-0.8-0.1-1.2-0.8-0.5-0.9-0.2-1.6 0.3-0.7 1-1l4.1-1.8q0.2-0.1 0.2-0.2 0-0.1-0.2-0.2l-4.1-1.8q-0.8-0.4-1-1.1-0.2-0.7 0.2-1.5 0.4-0.7 1.2-0.8 0.7-0.2 1.4 0.3l3.6 2.7q0.2 0.1 0.3 0 0.1 0 0.1-0.2l-0.5-4.4q-0.1-0.9 0.4-1.4 0.5-0.6 1.4-0.6 0.7 0 1.3 0.6 0.5 0.5 0.3 1.4l-0.5 4.4q0 0.2 0.1 0.2 0.1 0.1 0.3 0l3.6-2.7q0.7-0.5 1.5-0.3 0.7 0.1 1.1 0.8 0.5 0.9 0.2 1.6-0.3 0.7-1 1l-4.1 1.8q-0.2 0.1-0.2 0.2 0 0.1 0.2 0.2l4.1 1.8q0.8 0.4 1 1.1 0.3 0.7-0.2 1.5-0.4 0.7-1.1 0.8-0.8 0.2-1.5-0.3l-3.6-2.7q-0.2-0.1-0.3 0-0.1 0-0.1 0.2l0.5 4.4q0.2 0.9-0.4 1.4-0.5 0.6-1.4 0.6z"/><path class="w" d="m856.2 290.9q-0.8 0-1.3-0.6-0.5-0.5-0.4-1.4l0.5-4.4q0.1-0.2 0-0.2-0.2-0.1-0.3 0l-3.7 2.7q-0.7 0.5-1.4 0.3-0.7-0.1-1.2-0.8-0.5-0.9-0.2-1.6 0.3-0.7 1.1-1l4.1-1.8q0.1-0.1 0.1-0.2 0-0.1-0.1-0.2l-4.1-1.8q-0.8-0.4-1-1.1-0.3-0.7 0.1-1.5 0.5-0.7 1.2-0.8 0.7-0.2 1.4 0.3l3.7 2.7q0.1 0.1 0.3 0 0.1 0 0-0.2l-0.5-4.4q-0.1-0.9 0.5-1.4 0.5-0.6 1.3-0.6 0.8 0 1.3 0.6 0.5 0.5 0.4 1.4l-0.5 4.4q-0.1 0.2 0 0.2 0.2 0.1 0.3 0l3.7-2.7q0.7-0.5 1.4-0.3 0.8 0.1 1.2 0.8 0.5 0.9 0.2 1.6-0.3 0.7-1.1 1l-4.1 1.8q-0.1 0.1-0.1 0.2 0 0.1 0.1 0.2l4.1 1.8q0.8 0.4 1.1 1.1 0.2 0.7-0.2 1.5-0.4 0.7-1.2 0.8-0.7 0.2-1.4-0.3l-3.7-2.7q-0.1-0.1-0.3 0-0.1 0 0 0.2l0.5 4.4q0.1 0.9-0.4 1.4-0.6 0.6-1.4 0.6z"/></svg>